<svg xmlns="http://www.w3.org/2000/svg" viewBox="0 0 1203 584.36"><defs/><defs><style>.cls-3{fill:#fff}.cls-2{fill:#f05c2d}</style></defs><g id="Слой_2" data-name="Слой 2"><g id="Слой_1-2" data-name="Слой 1"><path d="M127.73 283.19c11.2 5.69 23.91 15.18 23.91 27.9 0 6.26-2.46 11.39-7 16.13a21.92 21.92 0 01-15.18 6.45c-5.69 0-10.06-1.71-17.08-6.83-8-5.69-14.43-8.54-23.73-8.54-11.39.19-20.87 4.37-27.9 12.91-7.59 9.49-11 22.58-11 43.27s3.42 34.17 11 43.65C67.94 426.87 76.87 431 88.63 431c9.3 0 15.75-2.47 23.73-8.35 6.64-4.93 11.39-7.21 17.08-7.21a22.07 22.07 0 0115.18 6.64c4.56 4.56 7 9.87 7 16.13 0 12.53-12.52 21.83-23.91 28.09-11.58 6.27-23.16 9.49-39.1 9.49C49.16 475.83.38 454.57.38 374.48s49-101 88.63-101c15.99.03 27.33 3.07 38.72 9.71zM301.22 451.54c-12.34 12.9-31.89 24.29-61.31 24.29s-49-11.39-61.3-24.29c-17.84-19-22.59-40.81-22.59-76.87s4.75-57.89 22.59-76.87c12.34-12.91 31.89-24.29 61.3-24.29s49 11.38 61.31 24.29c17.84 19 22.59 40.81 22.59 76.87s-4.75 57.89-22.59 76.87zM217 422.5c5.7 5.69 13.1 8.54 23 8.54s17.28-2.85 23-8.54c10.06-9.87 11.58-27.14 11.58-47.83s-1.52-38-11.58-47.83c-5.69-5.69-13.09-8.54-23-8.54s-17.26 2.85-23 8.54c-10.06 9.87-11.58 27.14-11.58 47.83s1.47 37.96 11.58 47.83zM354.57 257c0-28.84 16.13-56.55 57.13-56.55h2.65c9.49 0 15.95 1.13 20.31 3.41 5.88 3 9.87 8.92 9.87 17.65 0 8.92-3.79 14.62-9.87 17.65-4.17 2.09-8.54 2.66-14.8 3-12.53.76-15.95 8.16-15.95 17.46v21.64h14.81c9.3 0 12.71.57 16.7 2.66 5.89 3 9.11 8.92 9.11 16.32s-3.22 13.29-9.11 16.32c-4 2.09-7.4 2.66-16.7 2.66h-14.81v122c0 12-.56 16.7-3.22 22-3.61 7.21-11.39 11.76-21.45 11.76s-17.84-4.55-21.44-11.76c-2.67-5.32-3.23-10.06-3.23-22v-122h-5.13c-9.3 0-12.72-.57-16.7-2.66-5.88-3-9.11-8.92-9.11-16.32s3.23-13.24 9.11-16.24c4-2.09 7.4-2.66 16.7-2.66h5.13z" class="cls-2"/><path d="M461.43 257c0-28.84 16.13-56.55 57.13-56.55h2.65c9.49 0 15.94 1.13 20.31 3.41 5.89 3 9.87 8.92 9.87 17.65 0 8.92-3.8 14.62-9.87 17.65-4.17 2.09-8.54 2.66-14.8 3-12.53.76-15.94 8.16-15.94 17.46v21.64h14.8c9.3 0 12.72.57 16.7 2.66 5.88 3 9.11 8.92 9.11 16.32s-3.23 13.29-9.11 16.32c-4 2.09-7.4 2.66-16.7 2.66h-14.8v122c0 12-.58 16.7-3.23 22-3.61 7.21-11.39 11.76-21.45 11.76s-17.84-4.55-21.45-11.76c-2.65-5.32-3.22-10.06-3.22-22v-122h-5.13c-9.3 0-12.71-.57-16.7-2.66-5.89-3-9.11-8.92-9.11-16.32S433.71 287 439.6 284c4-2.09 7.4-2.66 16.7-2.66h5.13zM591.06 390c0 25.63 15 44 43.66 44 12.33 0 24.48-3.42 34.16-10.63 7.78-5.51 12.53-7.4 18.41-7.4 9.49 0 19.93 9.3 19.93 20.68 0 9.3-8 17.84-19.36 25.44-13.48 9.11-32.08 13.66-53.9 13.66-46.88 0-91.48-21.26-91.48-101.16 0-64.53 34.73-101.16 86-101.16 53.34 0 84.28 38.34 86 88.25.19 7.6-.76 16.14-6.64 22-6.31 6.32-14.29 6.32-21.69 6.32zm70.61-55.23c-5.32-11.77-16.52-20.3-33.22-20.3-16.51 0-27.89 8.53-33 20.3-3.23 7.21-4.18 12.91-4.37 21.45h75c-.42-8.5-1.19-14.22-4.41-21.41zM1021.17 273.51c22 0 39.86 8 52.39 25.05 16.7-17.46 34.54-25.05 59.21-25.05 19.74 0 37.59 6.45 48.59 17.46 16 15.94 21.64 34.54 21.64 56.18v94.14c0 12-.57 16.7-3.23 22-3.6 7.21-11.38 11.76-21.44 11.76s-17.84-4.55-21.45-11.76c-2.66-5.32-3.23-10.06-3.23-22V354c0-26.76-17.08-35.68-32.64-35.68-15.19 0-33 8.92-33 34.54v88.45c0 12-.57 16.7-3.22 22-3.61 7.21-11.39 11.76-21.45 11.76s-17.84-4.55-21.45-11.76c-2.66-5.32-3.23-10.06-3.23-22V354c0-26.76-17.07-35.68-32.64-35.68s-33 8.92-33 35.68v87.31c0 12-.57 16.7-3.23 22-3.61 7.21-11.39 11.76-21.45 11.76s-17.84-4.55-21.45-11.76c-2.65-5.32-3.22-10.06-3.22-22V307.86c0-12.72.57-16.51 3.61-22.2 3.6-6.84 11.95-11.39 21.25-11.39 6.64 0 12 2.09 15.75 5.69 4 3.61 5.89 7.78 7.4 14.43 12.67-13.86 31.32-20.88 49.49-20.88z" class="cls-2"/><path d="M832.51 60a67.52 67.52 0 01-8.09 8.55c-3.14 2.88-6.55 5.81-10.13 8.87-7 6.21-14.8 13.27-20.66 23a50.78 50.78 0 00-6.91 32.94 61.2 61.2 0 0012.08 28.79 67.42 67.42 0 0022.2 19.08c-10.24-16-16.91-33.33-16-48.78a36.76 36.76 0 017.19-20.06c4.29-5.93 10.5-11.48 17.44-17.49 13.4-11.33 32.25-29.54 29.87-55a32.12 32.12 0 00-7.27-16.85 40.47 40.47 0 00-13-9.9c-9.1-4.43-17.61-6.6-25.84-11.63 4.54 8.73 13.22 14.72 19.29 20.93 6.47 6.19 9.37 12.31 8.64 18.48-.52 6.18-4 12.99-8.81 19.07zM770.06 168.34c-7.67-10.32-13.25-21.61-14.65-33.07a38.52 38.52 0 019.64-30.73c7.73-8.65 18.28-17.06 25.72-28.37 3.7-5.6 7-12.3 6.81-19.74-.33-7.56-5.1-13.59-10.48-16.93 3.73 5.31 6 11.21 4.8 16.59s-4.52 10.14-8.34 14.61c-8 9-17.86 16.16-27.29 26.19a47.82 47.82 0 00-10 18.92 43 43 0 00.21 21.18 53.15 53.15 0 0023.58 31.35z" class="cls-3"/><path d="M843.79 112.87a39.14 39.14 0 00-6.35 17.8 41.86 41.86 0 002.49 18.26 50.87 50.87 0 0022 26.15c-6.39-9.19-11.25-18.83-13.22-28.66s-.35-19.37 4.84-27.12 14-14.62 21.58-23.22a46.19 46.19 0 009.37-15 25.34 25.34 0 00-.07-17.29c-.71 11.58-7.56 19.22-15.65 25.83-8.03 6.81-17.72 12.72-24.99 23.25zM738.81 253.84h141.55a5.39 5.39 0 005.39-5.38v-26.09a5.4 5.4 0 00-5.39-5.39H870v-11.13a4.78 4.78 0 00-4.77-4.77H752.49a4.77 4.77 0 00-4.76 4.77V217h-8.92a5.39 5.39 0 00-5.38 5.39v26.09a5.38 5.38 0 005.38 5.36zM891 286c-3.61-7.21-11.39-11.76-21.45-11.76s-17.84 4.55-21.45 11.76c-2.65 5.32-3.22 10.06-3.22 22v87.31c0 26.6-16.89 35.57-32.37 35.67-15.49-.1-32.38-9.07-32.38-35.67v-87.26c0-12-.57-16.7-3.22-22-3.61-7.21-11.39-11.76-21.45-11.76S737.6 278.82 734 286c-2.65 5.32-3.23 10.06-3.23 22v94.14c0 21.64 4.18 40.24 20.12 56.18 11 11 27 17.46 46.69 17.46h29.82c19.74 0 35.68-6.45 46.69-17.46 15.94-15.94 20.12-34.54 20.12-56.18v-94.09c0-11.96-.58-16.7-3.21-22.05zM269.65 579.73a17.11 17.11 0 01-23.41 0c-3.4-3.62-4.31-7.79-4.31-14.67s.91-11 4.31-14.67a17.08 17.08 0 0123.41 0c3.4 3.62 4.31 7.78 4.31 14.67s-.91 11.05-4.31 14.67zm-16.09-5.54a6.71 6.71 0 008.77 0c1.92-1.89 2.21-5.19 2.21-9.13s-.29-7.25-2.21-9.13a6.71 6.71 0 00-8.77 0c-1.92 1.88-2.21 5.18-2.21 9.13s.29 7.24 2.21 9.13zM325.44 545.75a12.25 12.25 0 018.91 3.33c3 3 3.84 6.59 3.84 10.72v18c0 2.28-.11 3.19-.62 4.2a4.84 4.84 0 01-8.18 0c-.51-1-.62-1.92-.62-4.2v-16.69c0-5.11-3.26-6.81-6.23-6.81s-6.3 1.7-6.3 6.81v16.66c0 2.28-.11 3.19-.62 4.2a4.84 4.84 0 01-8.18 0c-.51-1-.62-1.92-.62-4.2v-25.46c0-2.43.11-3.16.69-4.24a4.54 4.54 0 014.06-2.18 4.22 4.22 0 013 1.09 4.8 4.8 0 011.41 2.75 12.84 12.84 0 019.46-3.98zM381.38 572.63c0 1.77.65 3.19 3 3.33a6.92 6.92 0 012.83.58 3.46 3.46 0 011.88 3.37 3.55 3.55 0 01-1.88 3.37 8.66 8.66 0 01-3.88.65h-.51c-7.82 0-10.9-5.29-10.9-10.8V538.5c0-2.28.11-3.18.62-4.2a4.85 4.85 0 018.18 0c.51 1 .62 1.92.62 4.2zM424 530.14a5.43 5.43 0 11-5.43 5.43 5.42 5.42 0 015.43-5.43zm4 51.86a4.84 4.84 0 01-8.18 0c-.51-1-.62-1.92-.62-4.2v-24.37c0-2.28.11-3.19.62-4.2a4.84 4.84 0 018.18 0c.51 1 .62 1.92.62 4.2v24.34c.04 2.28-.07 3.23-.62 4.23zM481.7 545.75a12.25 12.25 0 018.91 3.33c3 3 3.84 6.59 3.84 10.72v18c0 2.28-.11 3.19-.62 4.2a4.84 4.84 0 01-8.18 0c-.51-1-.62-1.92-.62-4.2v-16.69c0-5.11-3.26-6.81-6.23-6.81s-6.3 1.7-6.3 6.81v16.66c0 2.28-.11 3.19-.62 4.2a4.85 4.85 0 01-8.19 0c-.5-1-.61-1.92-.61-4.2v-25.46c0-2.43.11-3.16.69-4.24a4.54 4.54 0 014.05-2.18 4.23 4.23 0 013 1.09 4.8 4.8 0 011.41 2.75 12.83 12.83 0 019.47-3.98zM535.94 568c0 4.89 2.86 8.4 8.33 8.4a10.93 10.93 0 006.52-2 5.75 5.75 0 013.51-1.4 4.09 4.09 0 013.8 3.95c0 1.78-1.52 3.41-3.69 4.86-2.57 1.74-6.12 2.6-10.29 2.6-8.94 0-17.46-4.05-17.46-19.3 0-12.32 6.63-19.31 16.41-19.31 10.18 0 16.09 7.32 16.41 16.84a5.54 5.54 0 01-1.27 4.21C557 568 555.5 568 554.08 568zm13.47-10.54a7.09 7.09 0 00-12.64 0 9.36 9.36 0 00-.83 4.09h14.3a10 10 0 00-.83-4.1zM655.2 547.56a9.12 9.12 0 013 1.85 3.57 3.57 0 011 2.64A4.48 4.48 0 01658 555a3.46 3.46 0 01-2.64 1.12 7.14 7.14 0 01-2.75-.79 17.31 17.31 0 00-7.32-1.89c-3.66 0-5.33 1.78-5.33 3.73 0 2.21 1.42 3.08 3.92 3.3l5.9.58c7.46.69 11.27 4.64 11.27 11 0 8.33-7.1 12.31-16 12.31-5.94 0-9.71-1.08-13.07-3.36a4.49 4.49 0 01-2.29-3.63 4.17 4.17 0 011.52-3.22 3.68 3.68 0 012.5-.94 6.33 6.33 0 013.12 1.08 14.89 14.89 0 008.37 2.21c3.47 0 6.66-1.23 6.66-4 0-1.85-1-3.23-4-3.52l-5.94-.54c-6.81-.65-11.09-3.7-11.09-10.65 0-7.82 6.92-12 14.64-12a24.57 24.57 0 019.73 1.77zM694 554.52h-1a6.05 6.05 0 01-3.18-.51 3.66 3.66 0 010-6.23 6.05 6.05 0 013.18-.51h1v-5c0-2.29.11-3.19.61-4.21a4.86 4.86 0 018.19 0c.51 1 .61 1.92.61 4.21v5h2.83a6.07 6.07 0 013.19.51 3.66 3.66 0 010 6.23 6.07 6.07 0 01-3.19.51h-2.83v18.11c0 1.77.66 3.19 3.05 3.33a6.87 6.87 0 012.82.58 3.47 3.47 0 011.89 3.37 3.54 3.54 0 01-1.89 3.37 8.61 8.61 0 01-3.87.65h-.51c-7.83 0-10.9-5.29-10.9-10.8zM768.35 579.73a17.1 17.1 0 01-23.4 0c-3.41-3.62-4.31-7.79-4.31-14.67s.9-11 4.31-14.67a17.07 17.07 0 0123.4 0c3.4 3.62 4.31 7.78 4.31 14.67s-.91 11.05-4.31 14.67zm-16.09-5.54a6.71 6.71 0 008.77 0c1.92-1.89 2.21-5.19 2.21-9.13s-.29-7.25-2.21-9.13a6.71 6.71 0 00-8.77 0c-1.92 1.88-2.21 5.18-2.21 9.13s.29 7.24 2.21 9.13zM823.67 545.75a11 11 0 016.52 1.74 4.84 4.84 0 012.39 4 4.93 4.93 0 01-1.41 3.44 4.5 4.5 0 01-3.15 1.3 7.1 7.1 0 01-3.23-1 7.8 7.8 0 00-3.58-1c-3.15 0-6.27 2.17-6.27 6.95v16.59c0 2.28-.11 3.19-.62 4.2a4.84 4.84 0 01-8.18 0c-.51-1-.62-1.92-.62-4.2v-25.46c0-2.43.11-3.16.69-4.24a4.54 4.54 0 014.06-2.18 4.2 4.2 0 013 1.09 4.39 4.39 0 011.42 2.86 12.19 12.19 0 018.98-4.09zM868.27 568c0 4.89 2.86 8.4 8.33 8.4a10.89 10.89 0 006.52-2 5.77 5.77 0 013.52-1.42 4.09 4.09 0 013.8 3.95c0 1.78-1.52 3.41-3.69 4.86-2.58 1.74-6.13 2.6-10.29 2.6-9 0-17.46-4.05-17.46-19.3 0-12.32 6.63-19.31 16.41-19.31 10.18 0 16.08 7.32 16.41 16.84a5.62 5.62 0 01-1.27 4.21c-1.2 1.19-2.72 1.19-4.13 1.19zm13.48-10.54a7.1 7.1 0 00-12.65 0 9.65 9.65 0 00-.83 4.09h14.31a10.13 10.13 0 00-.83-4.1z" class="cls-3"/></g></g></svg>