<svg xmlns="http://www.w3.org/2000/svg" width="150" height="150" viewBox="0 0 1600 1600">
  <path fill="#211e1d" d="M1600 1600H0V0h1600v1600"/>
  <path fill="#45322e" d="M1187 384a823 823 0 01-34-73c-4-9-7-19-12-28-4-10-6-21-8-31l-3-11v-1-5l1-1v1l1 2 2 4 2 3c5 6 7 13 10 20l10 20 4 5a81 81 0 017 9c-1 4 0 6 1 9l5 4 5 5 9 14 4 7c2 4 2 7 1 12 0 4 1 8 4 13l5 6 4 5 2 3c2 3 3 6 3 10l1 4 1 1 2 2 2 6 3 5c1 2 3 4 5 4-2 4-2 8 0 11l5 5 4 3c3 2 4 5 4 11l4 9 4 6 4 4c-7-3-12-7-17-13a365 365 0 01-45-60zm-33-117l-3-5c0-4 3-1 4 0l8 13 2 4 5 10 6 6 6 4 2 9c1 3 1 7 3 10l1 1a125 125 0 0116 24l6 14 6 14v1l1 3 3 2 4-2c1 9 4 16 9 24l9 11c3 3 4 7 5 11 1 6 4 12 7 17l5 11a88 88 0 01-12-16l-7-9c-3-4-7-6-9-10v-6c0-3-2-5-3-7l-4-5-4-6-2-5v-6l-5-8-6-7-5-8c-2-3-4-5-2-8 2-4 1-8-2-12l-3-5-11-17c-4-5-10-8-12-14l-3-10c-2-3-5-4-6-8l-4-7-5-8zm-9-43l7-3h6l9 1 9 4c6 3 10 8 14 14l5 8 7 10c7 10 12 21 17 32l6 14a569 569 0 0044 76c4 6 5 13 5 21l2 12a78 78 0 011 38c-1 6-2 9-6 10l-3-2-2-7a30 30 0 00-10-22l-1-2c1-7 0-13-4-18-2-4-6-7-9-10l-2-3c-2-2-3-5-4-9l-2-5c-2-6-4-11-3-16l-1-2c-1-2-3-3-5-2-3 3-4 2-5 1l-1-4v-2c-5-16-14-31-26-45-3-3-1-10-2-14-1-2-2-5-4-6-3-4-9-4-12-8-4-5-5-12-8-18-2-6-6-9-9-14l-9-14-3-6c-2-3-2-6-1-9zm32-13l10 1c12 2 25 3 36 8a117 117 0 0151 48l5 6 2 4c3 9 8 19 13 28 8 17 17 34 18 54a118 118 0 01-28 90l1-1v-2c1-10 0-20-2-29l-2-18c-1-20-11-35-21-50l-11-17a1169 1169 0 01-44-86c-6-8-12-16-21-25-4-4-8-6-13-7-2 0-8 0-8-2-1-3 12-2 14-2zm43 230l12 15c8 9 33 16 43 10 17-10 29-24 36-43 11-30 12-61 3-89-8-22-19-42-30-62l-7-13-5-8c-22-32-57-41-90-48a41 41 0 00-38 11c-4 3-7 7-12 8h-1c-4 1-7 2-7 8-1 11 0 21 3 31 4 14 9 27 15 40l2 5 6 17a369 369 0 0045 88l2 2 23 28M675 857a776 776 0 01-49-59l-17-23c-7-8-11-17-16-26l-4-10h-1c0-2-2-4-1-5v-1h1l2 3 2 2v1l3 2c5 4 9 10 13 15l14 17 5 3a76 76 0 019 7c0 3 1 6 3 8l6 2 5 3 11 11 6 6c2 2 3 6 4 10 0 4 2 8 6 11l6 5 5 3 1 1 2 1c2 3 4 5 5 9 0 0 0 3 2 4h1l2 2 4 4 3 5 6 2c-1 4-1 7 2 10l6 3 4 2c3 1 5 4 7 9l5 7 6 5 4 2c-7 0-12-3-19-7a344 344 0 01-54-44zm-58-99l-4-5c-1-3 2-1 3 0 4 2 7 6 10 10l3 3 7 8c3 2 5 4 8 4l5 2c3 2 4 5 5 8s2 6 5 8l1 1a118 118 0 0120 18l9 11 9 12v1l2 2 3 1 3-2c3 7 7 14 14 20l11 8c3 2 5 4 7 8 2 6 6 10 10 14l7 9-8-7-3-2a511 511 0 00-12-10c-4-2-7-3-10-7-2-1-1-3-2-5l-4-6-5-3-5-4-3-5-2-5-6-6a154 154 0 00-14-11c-2-3-4-4-3-7 0-4-1-8-5-11l-4-3-14-14c-5-3-11-5-14-10l-6-8-7-5-6-7-5-5zm-19-37l6-5c1-2 4-1 6-2l7-1 10 2c6 1 11 5 16 9l6 6 9 8c9 7 16 16 23 25l9 11a537 537 0 0058 59c5 5 8 12 10 18l5 11a74 74 0 0110 35c0 5 0 8-4 10l-3-1-3-6a28 28 0 00-15-18l-1-1c-1-7-3-12-8-16l-10-7-3-2c-3-2-5-4-6-7l-3-5c-3-4-6-8-7-13l-1-2c-1-2-3-2-5 0-2 3-3 2-4 2l-2-4-1-1c-8-14-20-26-34-35-4-3-3-10-5-13l-5-5c-4-2-10-1-13-4-5-4-8-10-11-15l-12-10-12-11-4-5c-2-2-3-4-3-7zm26-20l10-1c11-2 23-3 34-1a110 110 0 0158 31l6 5 3 2 18 23c12 13 24 27 30 45a112 112 0 01-4 89v-2-1c-2-10-5-18-9-27l-6-15c-6-18-19-29-31-41l-14-13a1102 1102 0 01-61-68l-25-18c-4-3-9-3-13-3-2 0-7 2-8 0-2-3 10-5 12-5zm94 200l15 10c9 7 34 7 41 0 13-13 20-29 22-48 4-30-3-59-18-82-12-18-27-34-42-50a1515 1515 0 01-16-16c-27-24-61-24-93-23a39 39 0 00-32 20 33 33 0 01-10 10c-3 2-6 4-5 9 2 10 5 19 10 28l23 32 3 5 10 13a348 348 0 0062 69l2 3 28 20M271 423l31 38 17 27 17 25c6 9 10 19 14 30l4 10 1 1c0 1 2 4 1 5h-1s0 1 0 0l-2-2-2-4-3-2c-5-5-9-12-13-18s-8-12-14-18l-5-4a80 80 0 01-8-8c0-3-1-6-3-8l-6-3c-2-1-5-2-6-4l-11-12-5-6c-3-3-3-7-4-12 0-4-2-8-6-12l-6-5-5-4-2-2c-3-3-5-6-5-9l-2-5-1-1-3-1-3-5-3-5-6-3c1-4 1-8-2-10-1-2-4-3-6-4l-4-2c-3-2-5-5-7-10 0-3-2-6-5-9l-5-5-4-3c7 1 12 4 19 9a365 365 0 0154 51zm55 109l4 4c1 4-3 2-4 1-4-3-7-8-10-12l-3-3c-2-4-4-7-7-9-2-3-5-4-7-5l-6-3-4-8c-1-3-2-6-5-9l-1-1a125 125 0 01-20-21l-9-12-8-13v-1l-2-2-3-2-4 2c-2-8-6-15-13-21-3-4-7-7-11-9-4-3-6-6-7-10-2-6-6-11-10-16l-7-10a88 88 0 0111 11l3 3 10 8c3 3 7 4 10 8l1 6 4 6 5 4 6 5 2 5 2 5c1 3 4 5 6 7a162 162 0 0013 13h1c2 3 4 4 3 8s0 7 4 11l4 4 14 15c5 4 11 6 14 12l5 8 8 7 5 7 6 7zm17 40l-6 5-6 1h-9c-3 0-7 0-10-2-6-2-11-6-16-11l-6-7-9-9c-9-8-16-18-23-28l-8-12a569 569 0 00-58-66c-5-6-7-13-9-20l-4-12a78 78 0 01-8-37c0-6 0-9 4-10 1-1 2 0 3 1 2 1 3 4 3 6a30 30 0 0015 20l1 2c0 6 2 12 7 17a73 73 0 0013 10c3 2 5 4 6 8l3 5c3 5 6 9 6 15l1 2c1 1 4 2 5 0 3-3 4-2 5-1l2 3 1 2c8 15 19 28 33 40 4 3 3 9 5 13l5 6c4 2 10 2 14 5 5 4 7 11 10 16s8 8 12 12a215 215 0 0116 18c2 2 2 5 2 8zm-29 19h-10c-12 1-25 2-37-1a117 117 0 01-59-37l-5-5-3-3c-5-9-12-17-18-25-12-15-24-30-29-50a118 118 0 0111-94v3c1 11 4 20 7 29l5 17c5 19 18 32 30 45l14 15a1168 1168 0 0160 76l26 21c4 3 9 4 14 4 1 0 7-2 8 0 1 3-12 5-14 5zm-85-218l-15-12c-9-7-36-10-44-2a84 84 0 00-27 49c-6 32-1 62 14 88a370 370 0 0057 73c27 27 63 30 97 31 12 0 24-5 31-14l4-4a35 35 0 0112-11c3-2 6-3 5-8-1-12-4-22-9-31l-22-36-3-5-9-15a369 369 0 00-61-78l-3-2-27-23M1173 96c0 11 1 24 4 39 5 21 14 35 28 44l15 8 20 12c16 10 27 4 39-4 8-6 14-14 19-23 2-4 5-9 9-13a222 222 0 0051-159h-6a40 40 0 010 10 234 234 0 01-51 146l-19 27c-5 8-13 14-21 15-6 1-13-1-18-6l-2-1h-1l-3-2h1c7 1 12-2 15-9l7-9 8-11v-2l2-2-1-1-1-4c0-4 3-7 6-10l5-7c5-11 13-20 21-29 6-6 8-15 10-24l1-4 1-1c2-9 4-17 12-22 3-2 3-5 3-8l3-6 1-2c3 0 6 0 7-2 2-1 3-3 3-6l-1-4v-4l4-22h-7l-4 20 1 3v6h-9l-1 3-1 1-1 5c0 4-1 9-3 11-7 6-11 14-13 24l-2 5c-1 7-3 14-7 20l-6 8c-8 10-16 20-22 32l-3 3c-1 1-3 3-3 6v1c0 9-5 15-10 21-3 4-6 7-8 12l-2 1a2 2 0 01-2-1l1-1 1-2 3-4c2-2 4-4 4-8l-2-5-1-3h3l4-2 2-3-1-5-1-2-1-1 1-1c7-1 8-7 8-12 1-5 2-7 5-8 4-2 6-5 7-8l1-1 17-35 8-16 1-2c3-8 7-16 14-20 4-4 6-7 6-11l-2-8-1-1-1-1h1c6 0 6-4 7-8a56 56 0 010-3c0-3 1-4 3-5 3-1 5-3 6-5h-12l-2 3-1 4c-1 4-1 6-6 7-2 0-4 2-4 5l2 4 2 6c0 4-3 7-6 11-9 9-14 21-18 31l-5 10c-4 11-9 23-16 33l-4 5c-5 5-9 10-9 18h-3c-3-1-5-1-7 1l-1 2 2 6 1 2 2 2h-8l-2 4 1 6 2 5c0 4-2 7-4 11-3 5-5 5-9 3-21-8-29-22-29-51a240 240 0 012-23c0-12 0-24 3-37 6-26 23-46 38-62h1l5-6h-9l-18 21c-18 26-27 48-27 72v22l-1 20c0 14 5 26 10 34-13-9-17-23-20-35a241 241 0 01-5-35c1-38 15-68 36-99h-8c-13 21-23 42-30 64-3 10-4 20-4 32M495 209a234 234 0 01-51 145l-19 27c-5 9-13 14-21 16-6 1-13-1-18-6l-2-1-1-1-4-2 1 1c8 0 13-3 16-9 1-4 4-7 7-10s6-6 7-11l1-1 1-2v-1l-1-4c0-4 3-7 6-10l5-8c5-11 13-20 21-28 6-7 8-16 10-24l1-5v-1c3-8 5-17 13-22 3-2 3-5 3-7 0-3 0-5 3-6l1-2 7-2c2-2 2-4 2-7v-4-4a175 175 0 019-37l2 12 1 11v3zM371 377c-20-8-28-22-28-51a241 241 0 011-23c1-11 1-24 4-36 6-26 23-46 38-62l1-1c10-11 21-22 33-32 17-12 31-20 50-15 4 1 9 3 9 10l-1 4-1 6v3l-1 3c-1 6-2 12-9 14-2 0-3 3-4 5l-1 3c-1 4-2 7-6 8-2 0-4 2-4 4l1 4 3 7c0 3-3 6-6 10-9 9-14 22-19 32l-4 9c-4 12-9 23-16 33l-5 5c-4 5-8 10-8 18l-1 1h-9l-1 3c0 1 0 3 2 5l1 2 2 3-5-1-4 1-1 3 1 6 2 6c0 4-2 7-5 11-2 4-4 4-9 2zm-44-44a240 240 0 01-5-35c1-43 19-76 45-112 16-24 37-36 62-38h23l4 1c-22 1-39 15-53 29l-7 8c-11 10-22 21-31 34-19 25-27 47-27 71v2l-1 21v19c0 14 5 26 10 34-13-9-17-23-20-34zm153-140l1 1-5 24 1 4v3l-1 2h-8l-2 4v1l-1 5c0 4-1 8-3 10-7 7-11 14-14 24l-1 5a50 50 0 01-13 28c-8 10-16 21-22 32l-3 3c-1 2-3 4-3 7 0 9-5 15-10 22l-8 11-2 1h-2l1-2 1-1 3-4c1-3 3-5 3-8l-1-5-1-3 3-1 4-1 2-4-1-5-1-1-1-2h1c7-2 8-8 8-12v-1c1-4 2-7 5-8 4-1 6-4 7-7l1-1 17-36 8-16v-2c4-7 8-15 15-20 4-3 6-6 6-10 0-3-1-5-3-8v-1l-1-2h1c6 0 6-4 7-7v-1-3c0-3 1-4 3-4 4-2 6-5 8-8l1-3zm16-17v-1c-1-2-1-4-4-5-4 0-6 3-6 6h-1a186 186 0 000-10c0-11-4-18-12-21-7-3-15-3-21-2l-12-1c-29-2-52 8-68 27-25 30-43 61-52 93-3 10-4 21-4 32 0 12 1 24 4 39 5 22 13 35 28 44l15 9 19 11c17 11 28 5 40-3 8-6 13-15 19-23 2-5 5-10 9-14a222 222 0 0052-143c0-14-2-26-6-38M1468 321c-7 7-15 8-27 4l-13-6-7-4-15-7c-11-4-21-9-31-17-11-10-21-22-31-33a1113 1113 0 00-17-20c-14-14-14-31-10-53l1-6 2-12 2-2v-1-1h1l1-1c11 3 20 7 24 17 2 5 4 8 8 10a21 21 0 018 12c2 4 3 8 10 9v4l1 4v2c0 1 0 4 3 5 2 1 5 0 7-3 4-5 7-5 13 0 8 6 16 13 24 22 4 5 6 8 7 14 0 3 1 4 2 5 3 1 6-1 9-3l2-2 3-2 1 4c0 1 1 2 3 2 1 1 2 0 3-1l2-2 1 4c0 2 1 4 3 4 1 1 3 1 5-2s4-3 7 0l8 5 6 3c6 3 7 7 5 13 0 4-2 7-3 10-5 10-12 18-18 25zm-37 13l-2-1c-12-1-23-5-34-9l-5-2c-11-6-22-13-30-25l-17-24-20-29a1887 1887 0 0134 39c13 15 29 25 49 32l17 8c7 4 15 9 24 11h-16zm61-75c-1 3-3 5-7 7l-9-5-6-4-6-1c-3 1-5 1-6-4l-1-1c-1-1-4 0-5 1l-1 1v-1l-4-3-6 3-3 2-2 2v-3-4l-3-5-12-12c-7-6-13-13-22-18-6-4-10-5-15 1l-1 1-1 1-1-2v-2l-1-4c0-2 0-6-4-7-4 0-5-2-6-5-1-6-5-9-9-12l-5-5-1-3 1 1 1 1 5 5 9 7 5 4c6 3 12 7 16 12 4 4 7 4 12 5 3 1 6 4 10 3 1-1 2-3 3-2 4 0 5 4 4 7 0 4 2 6 5 9 2 2 4 4 4 6s1 3 3 4c2 2 5 2 7 2 2-1 5 0 7 1l5 2c5 0 9 3 13 6l10 5c6 4 12 5 17 4zm-130-122c24-4 46-2 66 5 11 4 19 12 26 19l43 47c7 8 8 23 3 34l-4 5c-3 3-6 5-9 5-6 0-11-2-17-8-3-3-7-6-13-5l-3-1v-4c0-2 0-4-2-6-3-1-5 1-6 2l-1 1-6 3c-2-1-4-3-6-7 0-2-2-3-3-5l-2-5-1-5c-2-3-9-7-13-7l-7 2-6-3c-22-15-43-31-61-51-1-2-3-4-6-4 7-6 16-10 28-12zm133 152c3-8 2-14-4-19 6-5 8-12 12-19v-1l1-2c6-12 7-30 2-39-2-4-5-7-8-9l-5-5c-15-18-30-34-46-48-16-15-37-17-58-18-14 0-31 0-47 9-12 7-21 15-26 26-3 6-4 13-5 20v3c-2 20-4 41 6 60l13 19 12 16c18 32 42 50 73 55l3 1c15 3 31 5 45-5 15-11 26-26 32-44M154 1022a234 234 0 01-15-9h-6c-4 0-6 0-7-5l-1-1c-1-1-4 1-5 1l-1 1v-1l-4-2c-2-1-4 1-6 2l-3 2-2 2v-3-3c-1-3-1-5-3-6l-12-12c-6-6-13-13-21-18-6-4-11-5-16 1l-1 1-1 1-1-2v-2-3c0-3 0-7-5-7-4-1-5-3-6-6-1-6-5-9-8-12l-6-5-1-3 1 1 1 1 6 5 8 8 5 3 17 13c3 3 7 3 11 4 3 1 7 4 10 3l4-2c3 0 4 5 4 8-1 3 1 5 4 8 2 2 4 4 4 7l3 4c2 1 5 2 7 1l8 2 4 1c5 0 9 3 13 6l10 5c6 4 12 6 18 4-2 3-4 6-7 7zM9 909c-2-1-4-4-6-4 6-6 15-10 27-12 25-4 46-2 67 6 10 4 18 11 25 18l44 47c6 8 7 23 2 34l-4 6c-3 3-6 4-9 4-5 1-11-2-17-8-3-3-7-6-13-5l-3-1v-4c0-1 1-4-2-5-3-2-5 0-6 1v1l-7 3c-2 0-4-3-5-6l-3-6-3-4-1-6c-2-3-9-7-13-7l-7 2-6-2c-22-16-43-31-60-52zm74 185h3c15 3 31 6 45-5 15-11 26-26 32-44 3-8 2-14-4-19 6-5 9-12 12-19l2-3c5-12 6-30 1-39-2-4-5-6-8-9l-5-5c-14-18-29-34-45-48-17-15-37-17-59-18-13 0-31 0-47 9l-10 7v20c7 3 13 7 16 15 2 4 4 7 8 9 4 3 6 6 8 11l1 2c1 3 2 8 9 8l1 5v5c0 2 1 4 3 5 3 1 5 0 7-3 4-4 7-5 13 0 9 6 16 13 24 22 5 5 7 8 7 15 0 2 1 4 3 4 2 2 5-1 8-2v-1l2-1 3-2 1 3 3 3 3-1 2-3 1 4c0 3 2 4 3 5 1 0 3 0 5-3s4-2 7 0l9 5 5 3c6 4 7 8 6 14l-4 9c-5 10-12 18-18 25s-15 8-26 4l-14-6-6-3-16-7c-10-5-21-10-30-18-12-10-22-22-32-33l-8-10-4-4v11l20 23 5 6c13 14 29 24 49 31 6 2 12 6 17 9 8 4 15 8 24 10H97c-12-2-23-6-34-10l-5-2c-11-6-22-13-29-25l-18-24-11-15v10l10 15c19 31 42 49 73 55M1585 920c-3 6-5 13-6 21v2c-2 20-4 41 6 60l14 20 1 1v-10l-9-13 9 10v-11l-4-5c-14-15-15-32-11-53l1-7 3-12 1-2v-1h1v-1l1-1 8 3v-20c-7 6-12 12-15 19M714 1043c-3 10-10 15-23 16a135 135 0 01-24 0l-18 1c-12 0-25 1-37-3-16-4-32-11-47-17l-12-6-5-2-7-3c-20-8-29-24-35-47l-2-6c-1-4-3-8-3-13v-3a8 8 0 000-1v-1l1-1c12-2 23-3 31 5 4 4 8 5 12 6 5 1 9 3 13 7l1 1c3 3 7 6 13 4l3 4 2 4 1 1c1 1 2 3 5 3s5-2 6-6c1-6 4-8 12-6 11 2 22 5 34 10 6 3 9 5 13 11 1 2 3 3 5 3 3 0 4-3 6-6v-1l2-2 1-3 3 2 4 2 2-3 1-3 3 3c1 3 3 4 5 3 1 0 3-1 3-4 1-4 3-5 7-4l11 1 7 1c7 0 10 3 11 10l1 11c0 11-3 23-6 32zm-30 30h-2c-12 4-24 6-37 7l-5 1c-14-1-28-3-40-11-9-6-19-11-28-15l-32-19 42 19 8 3c19 8 39 11 62 8h20c9 1 19 1 28-1-5 4-10 6-16 8zm25-101c0 4-1 7-3 10l-12-1h-7c-2-1-4 0-6 2-3 1-5 3-8-2l-2-1-4 4v1h-1l-5-1-5 5-1 3-2 3-1-2-2-4-5-4c-6-1-11-4-17-6-9-3-19-6-29-7-8-1-12 0-14 8l-1 1-1 2-1-2-1-1-2-4c-2-2-4-6-8-5-4 2-6 0-8-2-4-5-10-6-14-8l-8-2-2-2h3l7 3 12 3 6 1c8 1 16 2 22 5 5 2 9 0 13-1s8 0 11-2l3-4c3-1 6 3 7 6 2 3 4 4 8 6 3 1 6 2 7 4l5 3c3 0 6 0 7-2 3-2 6-2 8-2l5-1c6-2 11-1 16 0h11c9 1 15 0 19-4zm-182-57c22-15 44-23 67-25 12-1 23 2 33 6l64 25c9 4 17 18 17 31l-1 7c-1 4-3 7-6 9-5 3-12 3-20 0-5-1-10-2-15 1l-3 1-2-3v-1c-1-2-2-4-5-4s-4 2-5 4v1c-1 3-3 5-5 6-2 0-5-1-8-4l-6-4-4-3-4-5c-3-2-11-2-15-1l-6 6h-7c-28-5-56-10-82-22-2-1-5-2-8 0 4-10 11-18 21-25zm199 85c-1-9-5-15-13-17 4-7 3-15 3-24v-3c0-14-8-32-17-38-3-3-7-4-11-5l-8-3c-22-11-44-19-66-25-23-7-43 1-64 10-14 6-31 14-41 30-9 12-13 25-13 37 0 7 1 15 4 22l1 2c8 21 16 42 34 56 7 5 14 8 22 12l18 10c32 22 64 28 96 19h3c16-5 32-9 41-26 10-18 13-37 11-57M890 501c10 2 16 9 18 21 2 6 2 11 2 17l1 7 2 18c2 12 3 25 1 37-3 17-8 33-13 48l-4 13-2 5-2 8c-6 20-21 30-43 39l-6 2-13 5h-2a8 8 0 00-2 0h-1l-1-1c-3-12-5-22 2-32 3-4 5-8 5-12a23 23 0 016-15c3-3 6-7 3-13l4-3 3-3 1-1c2-1 4-2 3-5 0-3-2-5-6-5-7-1-8-4-8-11 1-12 3-23 7-35 2-7 4-10 10-14l3-5c-1-3-5-5-8-6l-3-1-3-2 2-3c1-1 2-2 1-3 0-2-1-2-2-3l-4-1 3-2 3-6c0-1-1-2-5-3-4 0-5-2-4-6l-1-11v-7c0-7 3-10 10-12l10-2c12-1 23 1 33 3zm32 26l1 2c6 12 8 25 10 37l2 5c0 14-1 28-7 41l-13 29c-4 11-9 23-15 34l15-44 2-9c6-19 7-40 2-62l-2-20c0-9-1-18-4-27 4 4 7 9 9 14zm-102-15c3 0 7 1 10 3a251 251 0 010 19l3 6c2 3 4 4 0 8l-1 1c0 2 3 4 4 4l1 1-1 5c1 3 4 4 6 5l3 1 3 1-2 2-3 2c-2 1-4 3-4 5l-4 18c-2 9-5 19-5 29 0 8 2 12 10 14h1l2 1-1 1-2 2-3 2c-3 2-6 4-4 8s0 6-2 9c-5 4-5 9-6 14l-2 8-2 3v-2l1-2 1-7 3-12v-7c0-7 0-15 2-22 2-5 0-8-2-13-1-3 0-8-3-10l-4-2c-2-4 2-7 5-8 4-2 4-4 5-9l4-8 2-4-2-7-3-8-1-5c-3-5-3-10-2-16l-1-11c0-8-2-15-6-19zm-39 187c-17-20-28-41-32-64-2-11 0-23 3-33l19-66c3-10 16-19 29-21l7 1c5 0 8 2 10 6 3 4 4 11 2 19-1 5-2 10 2 15l1 3-3 2c-2 1-5 2-4 6 0 3 3 3 4 4h1c4 1 6 3 7 5l-3 8-4 6-2 5c-1 1-4 2-4 4-2 3-2 11 0 15 2 2 5 3 6 6l1 6c-2 29-5 57-14 84v8c-9-3-18-9-26-19zm65-206c-9 2-14 7-15 15-8-3-16-2-24-1l-1 1h-3c-14 1-31 10-36 20-3 4-3 8-4 12l-2 7c-9 24-15 46-19 69s6 43 17 63c7 13 17 29 34 38 13 7 25 10 38 9 7-1 14-3 22-7h2c19-10 39-20 51-40 5-7 8-15 10-23l9-19c18-34 21-66 9-97l-1-3c-6-16-12-31-29-39-19-7-38-9-58-5M448 1271c-3 9-10 15-23 16h-42c-12 1-25 1-37-2-16-5-32-11-47-18l-12-5-5-3-7-3c-20-7-29-24-35-46l-2-6-3-13v-3-1-1l1-2c12-2 23-2 31 6l12 6c5 0 9 2 13 6l1 2c3 2 7 6 13 4 1-1 2 2 3 3l2 4 1 1c1 2 2 4 5 4s5-2 6-6c1-7 4-8 12-6 11 2 22 5 34 10 6 3 10 5 13 11 1 2 3 3 5 3 3 0 5-4 6-6v-1l2-3 1-3 3 3c1 1 2 2 4 1l2-2 1-4 3 4c1 2 3 3 5 3 1 0 3-1 3-4 1-5 3-5 7-4l11 1h7c7 1 10 4 11 11l1 10c0 12-3 23-6 33zm-30 29l-2 1c-12 4-24 5-37 7h-5c-14-1-28-3-40-10l-28-16c-11-5-22-11-32-18l42 18 8 4c19 7 40 10 62 8h20c9 0 19 1 28-1l-16 7zm25-100c0 3-1 7-3 10a249 249 0 01-19-2l-6 2c-3 2-5 3-8-1l-2-1-4 4v1h-1c-2-2-3-2-5-1-2 0-4 3-5 5l-1 3-2 3-1-3-2-3c-1-2-3-4-5-4l-17-6c-9-3-19-7-29-8-8 0-12 1-14 8l-1 2-1 2-1-2-1-2-2-3c-2-3-4-7-8-5s-6 0-8-3c-4-5-10-6-14-7l-8-2-2-3 2 1h1l7 2 12 4 6 1c8 0 16 1 22 4 5 2 9 1 13 0s8 0 11-3c1-1 1-3 3-3 4-2 6 3 7 5 2 4 4 5 8 6 3 1 6 2 7 5l5 2c3 1 6 0 7-1 3-2 6-2 8-2l5-1c6-2 11-1 16-1 4 1 7 2 11 1 9 1 15 0 19-4zm-182-58c22-15 44-23 67-25 12-1 23 3 33 6l64 26c9 4 17 18 17 31l-1 7c-1 4-3 7-6 9-5 2-12 2-20 0-5-2-10-3-15 0-1 1-2 2-3 1l-2-3c-1-2-2-5-5-5s-4 3-5 4v1c-1 4-3 6-5 6-2 1-5 0-8-3l-6-4-4-3-4-5c-3-2-11-3-15-1-3 1-4 4-6 5l-7 1c-28-5-56-10-82-22-2-1-5-2-8-1 4-9 11-17 21-25zm199 85c-1-9-5-14-13-16 4-8 3-15 3-24v-4c0-13-8-31-17-38l-11-5-8-2c-22-11-44-19-66-26-23-6-43 1-64 10-14 6-31 15-41 31-9 12-13 24-13 37 0 7 1 14 4 22l1 2c8 20 16 42 34 55l22 13 18 10c32 22 64 28 96 19l3-1c16-4 32-9 41-25 10-18 13-37 11-58M977 1441c-3 10-11 15-24 16h-23l-18 1c-13 0-26 0-38-3-16-4-31-11-46-17l-12-6-6-2-7-4c-20-7-28-24-34-46l-2-6c-2-4-3-9-3-13v-3-2l1-2c12-1 22-2 31 6 4 3 7 5 12 6s9 3 13 6l1 2c3 3 6 6 13 4l2 4 3 3 1 2c1 1 2 3 5 3s5-2 5-6c2-6 5-8 12-6 12 2 22 5 34 10 7 3 10 5 13 11 2 2 3 3 5 3 3 0 5-3 7-6v-1l1-2 2-3 3 2c1 1 2 2 3 1l3-2 1-3 2 3h1c1 2 3 4 5 3l3-4c1-4 3-5 7-4l10 1h7c7 1 11 4 12 11l1 11c0 11-3 23-6 32zm-30 29l-2 1c-12 4-25 6-37 7h-6c-13-1-27-3-40-10l-27-16-33-18 43 19 8 3c19 8 39 10 61 8h21c9 1 18 1 27-1-4 4-10 6-15 7zm25-100c0 4-1 7-3 10l-12-1-7-1-6 2c-4 2-6 3-8-1l-2-1c-2 0-3 3-4 4l-1 1c-2-1-4-2-5-1-3 0-4 3-5 5l-2 3-1 3-2-2-1-4c-2-2-3-4-5-4l-17-6c-10-3-19-6-30-7-7-1-12 0-14 8v1l-1 2-1-2-2-2-2-3c-1-3-3-7-7-5-5 2-7 0-9-3-4-4-9-6-14-7l-7-2-3-3 2 1h1l8 3 12 3 6 1c7 1 15 2 22 5 4 2 8 0 13-1 3-1 8 0 11-2 1-2 0-3 2-4 4-1 6 3 8 6 1 3 3 4 7 6l8 4 5 3 7-2c2-2 5-2 8-2l5-1c5-2 10-1 15 0h12c8 1 14 0 19-4zm-182-57c21-15 43-24 66-26 12-1 24 3 33 6l64 26c10 4 18 18 18 31l-1 7c-1 4-4 7-7 9-5 3-12 3-20 0-4-1-9-2-14 1h-4l-2-2v-1c0-2-1-5-5-5-3 0-4 3-4 5-2 4-4 6-6 7l-8-4-5-4-5-3c-1-2-1-4-3-5-4-2-12-2-16-1l-6 6h-7c-28-5-56-10-82-22-2-1-5-2-7-1 3-9 10-17 21-24zm198 84c-1-9-5-14-12-16 3-7 2-15 2-24v-3c0-14-7-32-16-39l-12-5-7-2c-23-11-44-19-66-26-23-6-44 2-65 11-13 6-30 14-41 30-9 12-13 24-13 37 0 7 2 15 5 22v2c8 21 16 42 35 56 6 5 14 8 21 12l19 10c32 22 63 28 96 19l3-1c15-4 32-8 41-25 9-18 13-37 10-58M349 1360c7 8 8 17 2 29l-8 14a311 311 0 00-13 21c-6 11-13 22-22 31-12 11-26 21-39 30l-11 8-5 3-6 5c-17 13-36 12-58 5l-6-1-13-4-2-2-1-1h-1l-1-2c5-11 10-20 21-24 5-1 9-3 12-7 2-3 6-6 12-7l1-1c4 0 9-2 11-8l4-1h6c2 0 4 0 6-2 1-3 0-6-2-8-5-5-5-8 0-14 8-8 16-16 27-23 6-4 9-6 16-6 3 0 4-1 5-2 2-3 0-6-2-9v-1l-2-2-2-3 4-1c2 0 3-1 3-3l-1-3-2-3h4c3 0 5-1 6-3 0-1 0-3-2-5-3-3-3-5 0-8l6-8 4-6c4-6 9-7 15-4l10 4c10 6 18 15 24 22zm10 41v2c-3 12-9 24-14 35l-3 5c-7 11-16 22-29 29l-28 16-32 18 38-27 7-5c16-12 29-28 39-49 2-6 6-11 10-17 5-7 11-15 14-24l-2 17zm-73-74c3 3 6 5 7 9l-7 9-4 6-2 6c0 4 0 6-5 6l-1 1v5l1 2-4 4 2 7 2 3 2 2h-7l-6 2-14 12c-8 6-15 12-22 21-4 5-6 10 0 16l1 1 1 2h-8c-3 0-8 0-8 4-1 5-4 5-7 6-6 1-10 5-13 8l-6 5-4 1 1-1 2-1 5-5a59 59 0 0013-14c5-6 10-12 16-16 4-3 4-7 6-11 1-3 4-7 4-11l-2-4c1-4 6-4 9-3 4 0 5-1 9-4 2-2 4-4 7-4l5-2 3-7c-1-3 1-6 2-8l2-5c1-6 4-10 7-14 3-2 5-5 7-9 5-7 7-13 6-19zm-143 126c-2-26 2-49 13-70 5-11 14-18 22-25l55-41c8-6 24-6 36 1l5 5c3 3 4 6 4 10 0 5-4 11-10 17-4 3-7 7-7 13l-1 3h-4c-2-1-5-1-7 2-1 2 0 4 2 6l3 8c-1 2-3 4-8 5l-6 3-5 2h-6c-3 2-8 9-8 13-1 3 1 5 1 8l-4 6c-18 22-37 43-61 59-2 1-4 3-4 6-6-8-10-18-10-31zm175-125c-8-4-15-3-20 2-5-7-12-10-19-15h-1l-2-2c-12-7-32-9-42-5-4 1-7 4-10 7l-6 5c-21 14-39 28-56 43-17 16-22 38-25 60-2 15-3 34 4 51 7 14 15 24 25 31l22 8h2c21 4 44 8 65-1 8-3 15-7 22-12l18-10c35-16 57-40 66-72l1-3c5-16 9-32 0-48a96 96 0 00-44-39M1550 1266c-3 2-6 2-9 0l-1-2 1-3v-2c2-8 3-16 3-25 0-13-2-27-8-42-3-10-4-17-2-25l1-2c0-2-1-3-2-3-9-7-10-16-12-26l-3-13c-4-9-2-16 5-21l2-3c0-2-1-3-3-4-9-1-11-8-14-15a49 49 0 00-5-11l-4-9c0-2 0-3 2-4 4-3 9 0 15 5h1l5 5 1 1c12 12 19 25 25 37a317 317 0 0131 117c0 19-10 34-29 45zm-13-20c-2-8-5-15-9-22l-8-21c0-2-1-4-4-5l-2-2 3-1c1 0 5 0 5-4l-1-4-5-8c-3-5-6-9-6-14l-1-3v-2l2-2c3-1 5-3 5-5l-1-5-7-16c-1-3-3-5-6-6-5 0-6-4-6-7v-2l2-2c1-2 3-4 3-7l5-1 1-3-1-5-1-2-2-5-6-15c-1-2-13-19-8-21 3 0 4 2 4 4l3 9c3 10 7 21 16 29v1c-3 3-4 7-4 12l2 11 5 19 4 15 4 6c2 2 4 4 4 6l-1 3-2 6c0 4 2 8 4 11l3 6 1 7c3 11 6 22 6 33l-1 12zm-23 16c-13-8-24-16-34-25-8-11-16-24-21-39a393 393 0 01-18-84c0-11 4-23 7-33l3-10v-1l2-3 2 1 3 1 2-3v-7h9c11 0 16 8 21 18l4 10 3 8 1 4v1h-5-1c-2 0-6-1-8 3v2c0 2 2 3 3 3l2 1h-2a28 28 0 00-4 1c-2 0-5 0-5 3-1 4 2 5 4 5h1c7 2 24 25 25 32l-1 2c-5 4-7 8-7 13s3 10 9 15c1 1 4 3 4 5s-2 3-4 4-3 3-3 5l2 5v1c10 15 21 33 23 52 0 5-2 8-5 10-4 2-8 2-12 0zm-3 14c-22 9-51 2-70-18-28-36-41-68-41-101 0-13 2-26 6-39a92 92 0 0138-50l-1 1v2c-5 13-7 28-7 43a288 288 0 0031 113c7 15 21 25 34 34l4 3a68 68 0 007 5c3 2 3 3 3 4l-4 3zm70-90l-1-7c-8-41-22-76-43-106-7-10-16-21-32-25h-6c-6 0-14 3-20 6l-6-2c-8-3-18 0-30 9a104 104 0 00-49 106c5 36 19 68 42 93 15 16 31 24 50 26 22 2 44-1 63-11 23-11 35-26 36-48v-6c0-12-2-24-4-35M1026 1079l1 1c11 23 16 43 15 63 3 27-1 52-10 74-10 24-24 50-55 58-8 2-13 0-16-5l-1-7c-1-9 1-18 3-27 2-5 6-9 12-10 5-1 7-2 6-8l-2-7c-1-5-2-10 0-15l4-21c1-5 6-6 8-7 5 0 9-1 10-3 3-4 2-9 0-14v-1c-2-8-1-14 5-19l1-1 1-2 2-14c2-7 5-14 1-22l-1-1c-1-1 0-4 2-8 3-6 7-9 8-9 3 0 4 1 6 4v1zm-68 200c-2 1-5-1-7-1l-8-2c-4-1-1-4 1-6 3-2 5-6 5-9a373 373 0 0010-48c2-5 4-10 3-15v-2l-1-5v-2c5-2 6-7 6-11 1-3 1-7 4-9 6-4 10-12 10-21l1-6c2-3 3-7 1-11 4-2 6-4 4-7l-2-3v-1l-1-1-1-1h1c5 0 9-1 10-6 1-3 0-9 3-12 3-4 6-8 5-13l3 11 1 2c2 10-3 16-8 23l-1 2c-1 2-2 3-1 5v3c-8 4-5 9-3 13l1 5v2c1 5 1 7-4 9-9 1-13 6-14 15a844 844 0 01-5 42h-1-1c-8 4-12 9-13 18l-1 8c-2 8-3 16-1 24l1 5 3 5zm-63-47a162 162 0 0110-109l9-19c1-2 6-15 10-14 3 1-1 6-1 7a105 105 0 00-12 29c-3 13-5 26-5 38l1 30a172 172 0 0020 70l1 2c2 2 2 5-1 5l-10-5c-11-7-18-18-22-34zm114-164c2 3-1 5-2 7-3 3-4 5-5 9v-1l1-8 1-4v-1l1-4c2-2 4 0 4 2zm-54-5c9-10 22-14 33-17 4-1 9 0 13 2s2 7 0 10l-3 12c-1 4-3 8-2 13 0 5 0 9-5 11-3 2-3 5-2 7v5c-2 4-3 6-7 4-2 0-5-1-7 2v4l1 2h1a26 26 0 002 3h-3l-2 1v5c5 13 1 29-11 39-3 2-3 5-2 6 1 5 0 7-4 10-6 3-4 12-3 15 3 6 1 11-1 16l-3 8-2 14-2 15a44 44 0 00-1 3c-2 8-4 11-7 12-2 0-4-1-5-4l-2-3-1-2v-1c-13-25-15-52-17-79-3-40 10-76 42-113zm68 4c-4-1-6-3-8-7l-1-2-2-4c-7-15-18-19-36-13-9 3-16 9-23 15l-12 9c-34 20-44 55-53 89l-1 4a156 156 0 008 91c5 12 14 20 25 25 12 6 24 10 37 12 10 2 17 1 26-4 19-9 33-22 47-45 17-29 18-61 19-90 1-23-7-44-14-63l-1-2-2-6c-3-5-5-7-9-9M99 189c-1 3-4 4-6 5-4 1-6 3-8 5l5-7 2-3 1-1 2-3c3-1 4 2 4 4zm-4 88c12-20 15-42 18-62l1-2v-7c1-5-1-8-3-11-3-3-4-6-4-11v-2l1-5c0-16-8-24-26-28-10-1-18 0-27 2l-15 2c-15 1-28 5-40 11v9c4-3 11-8 13-6 3 2-3 5-5 6l-8 5v10c14-12 32-22 53-30 13-4 26-2 37 1 4 1 8 5 11 8 2 4-2 8-5 10-4 2-6 5-8 8-3 4-7 6-9 10v1c-2 4-4 7-9 7-4 0-5 3-5 5-1 2-1 4-3 5-3 2-5 3-8 0-1-2-3-4-6-2l-3 4 1 2a26 26 0 010 2v2l-2-2h-3l-2 4c-2 15-13 27-28 30-4 0-5 2-5 4-1 4-2 6-6 6v9c4-1 7-4 9-7 2-2 4-5 7-5 8-2 14-7 19-14l4-5c3-2 6-5 7-10 3 0 6 0 6-4v-4-1l-1-2h1c4 3 9 4 12 1s4-8 8-10c5-2 9-4 11-9l-3 11v3c-3 9-10 12-18 16l-2 1c-2 1-3 2-3 4l-1 3c-9-1-10 5-10 10l-1 4-1 2c-1 5-3 7-8 5-8-2-14 0-19 7a818 818 0 01-17 23v19l2-3 2-7c1-5 2-10 6-14 5-4 9-9 14-16 3-4 8-3 11-2 4 3 7 3 10 2 4-2 5-7 6-12l1-1c1-8 6-13 14-15l3-1 8-11c5-5 11-11 11-20v-1c0-1 2-4 6-6 5-3 10-4 11-4 3 1 3 3 3 6v2c-1 26-7 47-16 63l-1 1c-10 24-25 44-44 59-14 11-29 22-47 26v6c11-3 22-8 35-15 29-17 46-45 60-70M1551 206l-3 3a156 156 0 00-37 84c-1 13 3 24 10 34 8 10 17 20 27 28 8 6 14 9 25 9 9 1 18 0 27-2v-6c-9 2-19 2-30-1-7-2-11-6-11-12l2-7c4-8 10-15 16-22 4-4 10-5 16-3 3 2 5 2 7-1v-19l-7 12h-2c-9-2-16 1-21 8l-4 7c-5 6-10 12-13 20l-1 5v6c-2 0-4-3-6-4l-6-6c-3-3 1-4 4-4 4-1 7-3 9-6a375 375 0 0032-37c4-3 8-7 9-12l1-2 2-5v-1h3v-9h-2c-7 0-10 9-10 12 0 7-4 11-9 14l-6 6-8 11-10 12v1l-2 2c-5 5-9 7-12 6-2 0-2-2-2-6a51 51 0 010-5v-1c1-28 12-54 23-78 9-19 21-36 38-49v-10 1l-16 14c-9 9-16 20-23 31l-13 27a172 172 0 00-15 70v2c0 3-1 6-4 4l-6-9c-7-11-8-24-3-40a162 162 0 0161-91l16-12 3-2v-9c-19 10-34 26-49 42M1549 572c6 23 12 48 10 73 0 10-4 20-8 30l-5 13-8 21-1 2c-5 13-14 22-28 28-10 6-22 9-38 10-5 1-10-1-15-7l-1-1c-1-2 0-4 2-7l2-2 7-11 10-19 2-4c2-4 4-8 1-14v-1l6-3v-6l-1-4c-1-8 4-15 10-22l1-1c2-3 4-5 3-10l1-3c1-2 3-2 5-2l6-3v-4l-2-3c-4-4-3-6 0-13l6-18 5-18 2-6c1-5 2-8 5-9 8-2 18 4 22 11l1 3zm-96 177h-2c-19-4-32-11-40-22l-6-7c-4-5-9-11-12-17l-2-7c-6-19-5-37 0-57l1 19v7c2 18 6 35 14 49 6 10 13 17 21 19 5 1 11 1 16-3 10-6 17-17 23-27l2-4c2-4 2-11-1-16a19 19 0 00-2-5h-1 1l6-2-1-3-1-2-1-1-3-4-2-3v-3c2-4 6-3 11-3 3 0 5 0 7-2l-3 5-1 2c-1 3-2 6-1 9l2 3 1 1-1 1c-3 0-5 1-6 3s0 4 1 7v1l1 4-6 12c-2 5-4 10-8 14-10 9-12 19-7 31v1zm45-128l2 2-3 2c-2 1-7 6-6 9 1 7-3 12-7 17l-2 3 1-5c0-8 1-15 3-22v-4l3-6c2-4 4-9 3-15-1-2-2-10 2-12 8-2 12-7 15-12h1c-3 6-5 13-5 19-1 6-3 9-6 11-4 3-5 6-3 9l2 4zm-62-70c8-8 17-14 26-20 8-6 17-8 24-6 6 2 11 5 15 10 8 12 10 33-2 44l-5 2c-5 3-11 6-9 15 1 3 0 10-1 10l-6 3c-1 2 0 4 1 5l1 2c1 2 0 5-1 8-3 5-4 11-3 16 0 5 0 7-2 9l-7 2c-5 0-8 1-10 3-2 3-2 6-1 10l4 4 3 2s-1 2-5 3l-1 1v3l1 1 1 6 1 6c2 5 2 7-1 11l-9 11-6 9c-3 3-7 5-11 6-4 0-8-1-11-3-8-6-13-13-15-21-11-35-13-72 0-106 5-12 11-23 18-33l11-13zm93 0l-7-1c-4-2-6-7-8-11l-4-9c-4-6-13-12-21-12-14-1-29 4-40 13l-13 11c-6 4-10 6-14 11l-12 13-7 13c-4 9-8 18-10 28-1 8-3 17-6 25l-1 4c-8 29-7 52 3 72 5 10 12 19 21 28 6 6 14 12 24 16 22 7 46 6 72-3 15-5 25-13 31-23 13-21 22-45 29-75 3-15 0-29-3-44l-3-18c-1-7-2-15-6-22-4-8-12-14-21-16h-4M545 793c-5 24-11 48-24 70-5 9-13 16-20 23l-10 10-17 15-2 2c-11 9-23 13-38 12-12 0-24-2-39-8-4-1-8-6-9-13l-1-1c0-3 2-4 5-6l2-1 12-7c6-3 12-7 17-12l3-2c4-3 8-6 8-12v-1h1l6-1c2-1 2-3 3-5l1-3c2-8 10-13 18-16l1-1c4-1 7-2 8-7l2-2h12l2-3-1-4c-1-5 0-7 6-12 5-3 10-9 14-14l13-13 4-5c3-3 5-6 8-5 8 2 15 11 15 20v2zM380 909l-2-1c-16-12-24-24-26-38l-2-8-3-21 1-8c3-18 12-35 26-50-4 5-6 11-8 17l-3 7c-7 16-10 33-10 49 1 13 4 22 10 27 5 4 10 5 16 5 12-1 22-8 32-15l4-2c4-3 7-9 7-15a19 19 0 00-1-5h7l1-2v-3-2l-2-4-1-3c0-2 1-2 2-3 3-3 7-1 12 2 2 2 4 2 6 1l-4 4-2 1c-2 2-5 4-5 8l1 3v2h-1c-3-2-5-2-7-1-2 2-2 5-2 8l-2 5-10 7c-5 4-9 8-14 9-13 4-19 12-20 25v1zm97-95l1 3v1h-3c-3 0-9 2-10 5-2 7-8 9-14 12l-3 2 3-4c3-7 8-13 13-19l2-2 5-5c4-3 8-6 9-13 0-2 3-9 7-9 8 1 14 0 19-4l1 1c-5 4-10 9-13 14s-6 7-10 8c-5 0-7 3-7 6v4zm-24-90l32-6c10-1 18 1 25 6 4 3 7 9 8 14 3 15-5 35-21 39h-6c-5 0-12 0-14 10l-6 8h-6c-2 1-2 3-2 5v2l-4 7c-5 3-9 7-10 12-2 5-4 7-6 8s-4 0-7-2c-4-2-7-2-10-1s-5 4-6 8l2 5 2 4h-6-2l-1 2v1l1 1-2 6-2 6c0 5-2 7-6 9a589 589 0 00-22 11c-4 2-8 2-13 1-3-1-6-4-8-7-4-10-6-18-4-26 6-36 21-70 48-95 9-8 19-15 30-21l16-7zm83 42l-5-4c-3-4-3-9-3-13l1-10c-1-8-7-17-14-21-12-7-28-9-41-6l-17 4c-7 1-12 1-17 4l-17 7-12 7c-8 6-15 13-21 21l-17 20-3 3c-20 22-29 43-29 66 0 11 2 22 6 34 3 8 7 17 15 25 16 16 37 26 64 30 16 2 29 0 39-7 21-13 40-31 59-54 10-12 14-26 17-40l6-18c2-7 5-15 5-22 0-10-5-19-12-24l-4-2M224 76c3 7 7 17 15 24 16 17 37 26 65 30 16 2 28 0 38-6 21-14 40-32 59-55 10-12 14-26 18-40l5-18 3-11h-7c-5 21-11 42-22 61-5 9-13 16-20 23l-10 9-17 15-2 2c-11 9-23 13-38 13-11 0-23-3-39-8-4-2-8-6-9-13l-1-2c0-2 2-3 5-5l2-2 12-7c6-3 12-6 17-11l3-3c4-3 8-6 8-12v-1h7c2-1 3-4 3-6l1-3c2-8 10-12 18-16h1c4-2 7-3 8-8l2-2h6l6 1 2-4-1-4c-1-5 0-7 6-11l7-6h-11l-3 1c-5 1-7 3-7 7l1 4v3h-3c-3 0-9 2-10 5-2 7-8 10-14 12l-3 2 3-4a103 103 0 0115-21l5-5 5-4h-13l-4 6c-5 4-8 8-10 13-2 4-4 6-6 7-1 1-4 0-7-1-4-2-7-3-10-1-3 1-5 3-6 7l2 6 2 3h-6l-2 1-1 2 1 2-2 6-2 5c0 6-2 8-6 10l-13 6-9 5c-4 2-8 2-12 0-4-1-7-4-9-7-4-9-6-18-4-26 2-15 7-30 13-44h-7l-2 4c-7 17-10 33-9 50 0 12 4 21 9 26 5 4 10 6 16 5 12-1 22-8 32-14l4-3c4-2 7-9 7-15a19 19 0 000-5h1l5 1 1-3v-3-1l-1-4-1-4 1-3c4-2 7 0 12 2 2 2 4 2 6 2h1l-5 3-1 1c-3 2-6 4-6 8l1 3v2h-8c-2 1-2 4-2 7v1l-2 4-10 8c-4 3-9 7-14 9-12 3-19 11-20 24v1l-2-1c-16-12-24-24-26-38l-2-8-3-21 1-7c2-11 6-21 11-31h-7c-7 14-11 27-11 41 0 11 2 22 6 35M1369 549s0-3 6-8c19-16 32-36 46-55l5-8c5-7 10-14 18-16 2-1 3-3 3-5-1-11 5-17 12-24l8-9a470 470 0 0024-34l4-2c2 1 2 2 2 4v1l1 2-5 24c-4 22-8 46-24 64l-3 4-1 1a214 214 0 01-88 60l-7 2-1-1zm-13-3v-2l3-5 4-4 13-13 8-6 1-1c2-2 6-5 3-10l2 1c8 1 11-6 12-11l2-4c4-8 10-15 16-21l13-16v-1c1-2 3-3 2-5l-4-3-1-1 2-1c9-2 14-9 19-15l2-3 1-1 3-4-2 3c-3 7-7 14-13 20-3 2-4 5-5 8s-1 5-4 8c-8 7-14 16-19 25-7 9-13 19-22 26-4 3-6 7-7 12-1 4-3 7-7 8-5 2-8 6-12 9l-4 4c-1 1-3 5-6 3zm-22-10c-5-3-9-9-11-18-3-14-3-26 2-37l6-15a130 130 0 0112-27c5-8 9-15 13-19 17-16 30-30 46-41 9-7 20-11 34-12l10-2a99 99 0 016-1c-37 16-61 45-80 72a237 237 0 00-34 78c-2 7-4 15-2 23l-2-1zm142-166c4 3 5 6 2 11-11 17-24 31-39 48l-2 1c-3 4-5 7-10 8-3 0-5 2-5 4-1 2-1 4 1 6 3 3 2 5-1 9h-1l-13 15-6 7-3 5-3 3-2 6c-1 4-4 6-7 6l-5-1c-2 0-1 2-2 4 0 5-1 8-4 11l-1 1-13 12-8 8c-2 2-5 4-8 3l-2-1c-3-2-4-5-3-10 12-49 32-86 61-117 11-16 29-26 48-36l9-5c3-1 6-2 9-1 3 0 5 1 8 3zm-117 187l6-1h8c10-2 19-7 28-11a215 215 0 0083-71c13-19 15-42 18-63l2-16-2-7c-2-4-5-6-6-7l-9-5h-1c1-11-7-19-21-21h-3c-6-1-11 1-16 3l-11 2c-15 1-27 6-38 13-40 29-67 66-79 112-6 18-3 36 8 52 4 7 11 10 20 9h2c1 0 2 0 3 3 1 4 4 8 8 8M1239 499c-1 1-4 1-10-3-21-12-45-19-67-25l-9-2c-9-3-17-5-22-12-1-2-3-2-5-2-10 5-18 1-27-3l-10-4a466 466 0 00-41-13c-2 0-3-1-3-3l3-3h1l1-1 25-3c22-4 46-8 69 1l4 2 2 1a214 214 0 0185 64c2 1 4 3 4 5v1zm1 13l-2 1c-2 1-4 0-6-1l-6-3-15-8-9-5-1-1c-3-1-7-3-10 0l-1-1c-1-9-9-8-14-8h-4c-9-2-17-5-25-9a158 158 0 00-20-7h-6l-1 5v1l-3-2c-5-7-13-10-20-13l-3-1h-2l-5-2 4 1c8 1 16 2 23 6 3 2 6 2 9 2l9 1c9 5 20 8 30 11 11 2 22 5 32 11 4 3 9 4 14 3 4 0 7 1 9 4 4 4 8 6 13 8l5 3c1 1 6 1 5 4zm-3 24c-1 7-6 12-13 17-12 8-24 11-36 10l-16-1c-7 0-16 0-24-2a779 779 0 00-27-7c-21-10-39-18-54-29-10-7-17-16-22-29l-6-9a98 98 0 01-3-5c27 30 63 43 94 52a237 237 0 0085 7c8 0 15 0 22-6h1l-1 2zm-203-79c1-5 4-7 10-6 19 5 37 12 58 21l2 1c4 2 8 4 11 8 1 2 3 3 5 3l5-2c2-5 5-4 9-2h1l18 7 8 4 6 2 4 1h6c4 0 7 2 8 5l1 4c1 2 2 2 4 1 5-1 8-2 12 1h1l16 8 10 6c2 1 5 3 5 6v3c0 3-3 5-8 5-51 5-92-1-131-19-19-5-34-19-49-34l-8-7c-2-2-4-5-4-8v-8zm215 49l-2-5-4-7c-5-9-12-17-19-24a215 215 0 00-94-55c-22-6-44-1-66 4l-15 3-6 4v1c-4 3-5 5-5 7l-2 11c-10 3-15 13-13 27l1 3 8 14c3 3 5 6 6 10 6 13 14 23 25 31 40 28 84 42 131 39 19-1 35-10 47-25 5-6 5-14 2-21l-1-3 2-3c3-3 6-7 5-11M524 1306l6-8c19-16 33-36 46-56l5-7c5-8 10-14 18-17 3 0 4-2 3-4-1-11 6-18 12-24l8-9a466 466 0 0025-34c1-2 2-2 4-2l2 4v2l-5 24c-4 23-7 46-24 65a66 66 0 00-4 5 214 214 0 01-88 60l-6 2-2-1zm-12-3l-1-2c0-2 2-4 3-5l5-5 12-12 8-6 1-2c3-1 6-4 4-9h1c9 1 11-6 12-11l2-4c4-8 10-14 16-21a157 157 0 0014-16c1-2 2-4 1-5 0-2-2-3-4-3l-1-1 2-2c9-2 14-8 19-15a277 277 0 015-4c-4 7-8 14-14 19l-5 8c0 3-1 6-4 8-8 7-13 16-19 25s-13 19-22 27c-4 3-6 7-7 12-1 4-3 7-6 8-6 2-9 5-13 9l-3 4c-2 1-4 5-6 3zm-22-10c-6-4-10-10-12-18-3-14-2-26 3-37l5-15a130 130 0 0113-27c4-8 9-16 13-19 16-17 29-31 45-42 9-6 20-10 34-11l10-2a97 97 0 016-1c-37 15-61 45-80 72-14 19-24 44-33 74l-1 4c-2 7-4 14-2 23l-1-1zm141-167c5 3 5 6 2 12-11 16-23 30-39 47l-1 2c-4 4-6 7-11 8-2 0-4 2-5 4s0 4 1 5c3 4 2 6-1 9l-1 1-12 15-6 6-4 5-3 4-2 6c-1 4-3 5-7 5h-4c-3 0-2 1-2 3-1 5-1 8-5 12l-14 13-8 8c-2 1-4 3-7 3l-3-1c-3-2-4-5-2-10 12-49 31-87 60-117v-1c11-16 29-25 48-35l9-5c3-2 6-2 9-2l8 3zm-116 187h5l8-1c10-1 19-6 29-11a215 215 0 0082-71c13-19 15-41 18-63l2-15-2-7v-1c-2-4-4-6-6-6l-9-6c0-11-8-19-22-20l-3-1c-6 0-11 2-16 3-4 1-7 3-11 3-14 1-27 5-38 13-40 28-66 66-79 111-5 19-2 36 8 53 5 6 12 9 20 8h2l3 4c1 3 4 7 9 7M690 1509c-1 0-2-2-1-10 4-24 1-48-2-72l-1-9c-1-9-1-17 3-24 1-2 1-4-1-6-8-7-7-16-7-26l1-11a467 467 0 00-4-42c0-2 0-4 2-4 1-1 2 0 4 1v1l1 1 13 21c12 20 24 40 24 65v6a214 214 0 01-27 104l-4 5h-1zm-12 6l-1-1-1-6v-6l2-18 1-10v-1c1-3 2-8-3-10h1c7-5 4-12 2-17l-1-4c-2-9-2-18-2-26l-1-20v-2c0-2 0-4-2-5-1-1-3 0-5 1h-1v-3c6-7 5-15 5-23a307 307 0 010-5h-1v-6l1 4c2 8 4 16 3 24-1 4 0 6 2 9l2 9c-1 10 0 21 1 31 2 11 3 23 2 34-1 6-1 10 2 14 2 4 2 8 0 11-2 4-3 10-3 14v6c0 2 1 6-3 6zm-23 7c-6 1-13-1-20-6-12-8-19-18-23-30l-5-14c-3-8-6-15-7-23a1026 1026 0 00-4-29c1-23 2-42 7-61 2-11 8-21 18-31l6-8 3-5 1-1v1c-18 36-16 74-13 107a237 237 0 0025 81c4 7 7 14 14 18v1h-2zm-3-218c6-1 8 1 9 7 3 19 3 38 2 61v2c0 5 0 9-3 13-1 2-2 5-1 7s3 3 5 3c4 1 5 3 5 8v35l1 4 2 7c1 3 1 6-2 8l-4 3c-1 1 0 2 1 4 3 4 5 7 4 12l-2 18-1 12c0 2-1 5-3 7l-3 1c-3 1-6-1-8-6-23-45-33-86-31-128-3-20 4-39 12-59l4-10 6-7 7-2zm36 217l3-4 6-5c6-8 10-18 14-28a216 216 0 0016-107c-3-23-16-41-28-59l-9-13c-1-2-3-3-6-4v-1c-4-2-7-2-9-1l-10 2h-1c-6-8-18-9-29-1l-3 2c-4 3-7 8-10 12l-7 10a73 73 0 00-19 34c-12 48-7 93 13 136 8 17 22 29 41 34 7 2 14 0 20-6l2-2s1-1 4 1 8 3 12 0M1227 1274c-1 0-3-1-5-9-6-23-18-45-29-65l-5-8c-4-8-8-15-7-24 1-2 0-4-2-4-11-4-14-13-17-22l-4-10a470 470 0 00-20-38v-4h5l2 1 19 14c19 14 38 28 48 51l2 4v1a214 214 0 0115 106l-1 7h-1zm-8 10h-2l-4-5-2-6-5-17-3-9v-2c-1-3-2-7-7-7l1-2c5-7-1-12-4-16l-3-3c-6-7-9-15-12-23a158 158 0 00-9-20l-4-4c-2 0-3 2-5 3l-1 1v-3c2-9-2-17-5-24a343 343 0 01-2-4l-3-5 3 3c4 6 9 13 11 21 1 3 3 6 6 8l5 7c3 10 8 19 13 28 6 10 12 20 15 31 1 5 3 9 7 12s5 6 5 10c-1 5 1 10 2 14l2 6c1 1 4 5 1 6zm-19 16c-6 3-13 4-22 2-13-3-24-9-32-19l-10-11c-6-6-12-12-16-19a655 655 0 00-14-24c-8-22-15-40-18-59-2-11 0-23 5-36l2-10 2-5v-1-1 1c-2 40 14 75 29 103 12 22 29 42 53 63l3 3c5 5 11 10 19 11l-1 2zm-88-201c5-3 9-2 12 4 10 17 17 34 25 55l1 2c2 5 4 9 2 14 0 2 0 4 2 6 1 1 3 2 5 1 5-1 6 1 8 5v1l8 18 3 8 3 6c1 2 0 2 2 3l5 5c2 3 3 6 1 9l-2 4c-1 2 0 2 2 3 5 2 7 5 8 10h1l5 17 3 11v8l-2 2c-3 2-6 1-10-2-39-32-64-66-79-106-9-17-10-37-11-59v-10l3-9 5-6zm117 187l2-5 3-7c3-10 3-20 3-31a215 215 0 00-27-105c-12-20-31-32-49-44l-13-8c-2-2-5-2-7-2h-1c-4 0-7 1-8 3-4 1-7 3-9 5-10-5-21-1-28 10l-2 3c-3 5-3 11-4 16l-3 11c-5 13-7 26-5 39 8 49 30 89 65 121 14 13 31 18 51 16 8-1 14-6 16-14l1-3h4c4 0 9-1 11-5M1323 774c0 1-2 3-10 3-24 2-47 10-70 17l-9 3c-8 3-16 5-24 3-2-1-4 0-5 2-6 9-15 10-24 12l-11 2a464 464 0 00-41 12h-4c-1-2 0-3 1-5l1-2 18-16c17-16 34-32 58-37l5-2h1a214 214 0 01107 5l6 2 1 1zm8 10l-1 2c-1 2-4 2-5 2l-7 2-17 2h-12c-3 1-7 1-8 6l-1-1c-6-6-12-2-17 1l-3 3-26 7a158 158 0 00-20 5c-2 1-4 1-5 3l2 5v1h-3c-8-4-16-1-24 1a347 347 0 01-4 1l-6 1 4-1c7-4 14-7 23-8 3 0 6-2 8-4 3-1 5-3 8-3 11-1 21-5 31-9 10-3 21-7 33-8 5 0 9-2 13-5 3-3 6-4 10-3 5 2 10 1 15 0h5c2-1 6-3 7 0zm11 22c3 6 2 13-1 21-6 13-14 23-24 28l-14 9a129 129 0 01-26 14c-8 3-16 7-22 7-22 4-42 7-61 6-11 0-22-4-34-11l-9-4-5-2h-1l-1-1h1c39 10 76 0 107-10 23-7 47-20 71-39l4-3c6-4 12-9 15-17v2zm-212 49c-2-6-1-9 5-11 18-7 37-10 59-15h3c4-1 8-2 13 0h7l2-5c-1-5 2-6 6-7h1l19-4 9-2 6-2 4-1 5-4c3-2 6-2 9 0l3 3c2 2 3 0 4-1 3-4 6-6 11-7l18-2 12-1c2 0 5 0 8 2l1 2c1 3 0 6-4 9-39 33-77 51-119 58-18 7-38 3-59 0l-11-2c-3 0-6-1-8-4-2-1-3-4-4-6zm205-81l-5-3-6-4c-10-4-20-6-30-8a215 215 0 00-108 7c-22 8-38 24-53 40l-10 11c-2 2-3 4-3 7-1 5-1 8 1 9 0 4 2 7 4 10-7 9-5 20 4 30l3 2 14 7 11 5c12 7 25 11 38 12 49 1 93-13 130-42 15-11 24-27 25-47 0-8-3-15-11-19l-2-1v-4c1-4 1-9-2-12M121 114c17 8 35 8 54 0 7-4 11-10 11-18v-3l4-2c4 0 8-3 9-7l1-6v-7c0-11-3-21-6-31a216 216 0 00-17-40h-7c11 20 19 41 23 63l1 3v6l-1 1c0 1-3-1-7-7-13-21-30-38-47-54a5268 5268 0 01-12-12h-10l19 19c8 7 16 15 22 25 3 5 6 8 11 9 4 2 6 5 7 8 1 5 4 9 7 13l3 5c1 1 5 4 2 6l-2 1-4-4-4-6-10-14-5-9-1-1c-2-3-4-6-9-5l1-1c2-8-4-12-9-14l-4-2c-7-6-13-13-18-20l-9-10H93c0 2 2 3 3 4h6c4-3 5-1 8 2l1 1 13 15 5 7 4 5 3 2 6 4c3 1 5 4 4 8l-1 4c0 2 1 2 3 2 5 1 8 3 11 7l10 15 7 10c1 2 3 5 2 8l-2 2c-2 3-5 3-10 1-46-20-80-45-106-79-6-5-10-11-14-18h-7a249 249 0 00111 97l4 1c6 4 13 7 22 6l-1 1c-5 5-11 8-20 9-14 1-26-2-36-9l-14-8c-7-3-14-7-20-13l-4-3-17-16C50 46 39 31 30 14L26 0h-8c1 6 3 12 6 17 22 44 54 77 97 97M1087 300c-1 2-4 3-7 2-9-2-18-1-29 4-7 4-13 6-19 1v-1c-1-1-3-2-6 0l-23 13-1 1-3 1c-9-2-17 1-25 4l-12 5c-4 0-7 2-11 3l-11 4c-10 2-22 5-33 11h-3v-1c-1-4-1-7 3-9a633 633 0 0028-16 285 285 0 01117-32h6l5 1c7 0 14 1 21 5l1 1 2 2v1zm-1 10l-7 1-10 1-19 6c-9 3-21 4-28 11-2 3-4 7-8 7-3 1-7-1-11-1-5 0-9 2-13 3-3 1-6 1-8 3l-3 6c-3 3-10 0-13 0a62 62 0 00-27 3c-4 2-8 4-13 4-2 0-5 0-5-3-1-5 15-6 19-7 8-2 17-4 25-8s20-6 29-8c7-1 13-4 19-6l11-6c5-2 8 1 12 1h2c7 0 13-3 19-5 2-2 4-3 7-3 4-2 8-1 12-1 3 0 8-1 10 1v1zm24 22c0 3-3 7-7 10a260 260 0 01-158 47c-14-1-24-3-35-6h-1c-6-2-8-5-8-11s3-10 8-12c8-2 16 0 24 2l1 1h1c1 1 3 2 4 1l1-1c1-7 5-10 14-10h7c6 0 10-1 15 1h7l1-6c-1-1 0-2 2-3h2l3-1c7-5 13-4 22-1 5 1 11-4 14-9l1-2 1-2 18-5c17-5 32-10 49-5h1l3 1c3 1 5 2 6 4 3 2 4 4 4 7zm-29 44l-23 17-12 8c-21 15-44 17-66 17a242 242 0 01-13 0c-29-5-49-15-65-30l6 2c46 12 93 8 144-13 18-8 38-17 54-30-7 10-15 20-25 29zm-19-93a221 221 0 01-16 0 315 315 0 00-141 47c-5 3-8 8-8 13-1 4 1 9 4 12-6 5-10 13-10 21-1 7 1 13 5 17l4 3c19 18 43 27 70 29 34 3 66-7 94-28 17-13 35-26 46-45l2-3c3-5 6-10 6-16 0-5-2-9-7-13-3-3-9-6-15-8h-2c1-3 3-6 2-9 1-4-1-6-3-9l-2-2c-8-6-17-9-29-9M814 326c0 1-2 4-5 5-9 3-17 8-23 18-5 6-9 12-16 10h-1c-2 0-4 0-5 3l-14 23-2 3c-9 3-14 10-19 16l-9 10-8 9-7 9c-8 7-17 15-23 26l-2 1-1-1c-3-3-4-5-2-9a609 609 0 0016-28 285 285 0 0185-86l6-3 4-2c7-4 13-7 21-6h4l1 2zm4 8c0 2-5 5-6 5l-7 6-14 15c-7 7-17 14-19 23-1 4 0 8-3 11l-11 4c-4 2-6 6-9 9-2 2-5 4-6 7v7c-1 3-8 5-11 6-6 4-13 7-17 12l-4 4c-3 4-6 8-10 10-2 1-4 2-5 0-4-4 9-13 12-15 6-6 13-12 18-20 4-8 14-15 21-21l13-15 7-11c4-4 7-3 11-6h1c6-4 10-9 14-14l5-6c3-4 6-5 10-7l9-4h1zm31 8c2 3 2 7-1 12a260 260 0 01-113 120c-12 6-22 9-33 12l-1 1c-6 1-9 0-12-6-4-5-3-10 1-14 6-6 13-8 21-10h3l3-1 1-2c-2-7 0-11 7-15l7-4c4-3 8-6 13-7l5-4c1-2-1-3-2-5-1-1-1-2 1-4h1l3-3c3-8 9-10 18-12 5-1 7-9 8-15l-1-2v-2l14-14c11-12 22-24 39-29h1l3-1h8c3 1 5 2 6 5zm-3 53l-11 25-6 14c-11 23-30 36-49 48a241 241 0 01-11 6c-28 10-50 12-71 6l5-1c47-12 85-40 119-84 12-15 24-32 31-53 0 13-2 26-7 39zm-62-72l-5 3-10 5a315 315 0 00-98 112c-3 5-3 11-1 15s6 7 10 8h1l-1 1c-3 6-2 15 2 23 3 6 8 10 13 12l5 1c25 5 51 2 75-10 31-15 54-39 67-71 9-20 17-41 17-63v-3c1-6 1-13-2-17-2-4-7-7-12-8s-11-1-17 1h-2c-1-3-1-6-3-8-1-4-4-5-8-6l-2-1c-10-2-20 0-29 6M1510 44l6 9c5 6 7 14 9 22l4 11 1 3c2 5 3 11 11 12-2 3-4 4-7 5l-1 1-2-4-1-2-20-57zm-94 35c21 40 61 50 97 56 6 1 11 0 14-3 4-4 7-9 7-16v-1c14-3 15-13 15-22v-7l2-8 1-18v-4c-1-18-2-37-7-56h-6c4 17 6 35 8 53l-2 7-4 32-1 1a546 546 0 00-5-11l-6-18-9-18c-2-3-5-7-6-11-5-10-9-21-12-32l-1-3h-8l5 14 7 18h-5v1l-2 1-1-1 1-2 1-5-2-9-8-17h-7a516 516 0 0110 23v5l-1 4 1 5 1 2c0 1 0 3 2 3h4l2-2-1 3v4l-2 4 2 5h2c1 0 3 0 3-2l1-1 1 1v1l8 23 10 28c1 3 3 10 1 13l-1 1h-7c-5 0-9-4-13-7a154 154 0 01-33-29c-12-15-21-32-27-51-4-11-6-22-8-33h-7c3 19 8 37 15 54 8 20 22 37 41 53l5 5 11 9c3 1 4 3 3 4h-2c-8 2-16-2-23-4-19-6-37-16-49-32-16-23-26-47-30-75l2-10V0h-7v6c0 23 6 46 20 73M525 625l-5 31-1 2c-1-1-2-1-2-3a593 593 0 00-9-26c-2-7-5-12-9-18-2-4-5-7-6-11l-12-32-3-9c-3-7-5-13-10-18-3-3-4-5-4-7l3-9h1l1-3-1-2h-5c-3 1-5 2-7 1s-3-3-5-7l-3-9-7-18c-1-5-1-9 1-12 2-2 4-2 8-1l1 1c26 5 39 24 51 45 17 30 21 63 24 97zm-12 46h-1c-1 0-2-1-2-3l-1-2a6570 6570 0 01-14-49c5 7 7 15 10 23a194 194 0 004 14c2 5 3 11 11 12-2 3-4 4-7 5zm-37-90l-25-53-2-4c12 14 21 31 28 55l7 18h-5l-2 1v-3l1-5-2-9zm28 103c-2 2-5 1-7 1-5-1-9-5-13-7a155 155 0 01-33-29c-12-15-21-33-27-51-9-26-10-52-11-75 0-7 3-12 6-17l4-7c1-3 4-4 6-4 4 1 6 3 7 6 4 21 14 41 24 60l10 22 1 5v4l-1 5 1 5 1 1c0 2 0 3 2 4 1 1 3 0 4-1l2-1-1 2v4l-2 5 2 4 2 1 3-2 1-1 1 1v1l8 22 10 29c1 3 4 9 1 12l-1 1zm-20 5l-2 1c-8 1-16-2-23-4-19-6-37-16-49-33-16-22-26-46-30-74l2-10c2-20 4-38 14-56 7-12 15-22 28-30 2-2 5-3 7-2l1 2v3l-2 2c-16 6-24 19-24 38 0 35 6 66 18 93 8 19 22 36 41 52l6 6 10 9c3 1 4 2 3 3zm47-68c-2-37-6-79-32-116-11-17-26-33-50-37-6 0-11 2-15 5l-7 3c-12 4-23 12-31 23-10 15-17 31-20 54l-1 18c0 23 6 46 20 72 21 41 61 51 97 57 6 0 11-1 14-4 5-3 7-9 7-16v-1c14-2 15-13 15-22v-6l2-9 1-18v-3M1391 1058a155 155 0 01-56-7l-6-1c-20-5-41-9-61-17-12-4-19-14-22-26a58 58 0 01-2-20 126 126 0 001-5l3 3 9 12c4 5 9 8 15 10 11 2 24 6 34 15 1 1 3 2 5 1l2-1c10-3 18 2 26 7l9 5 10 2 6 1c5 2 9 1 13 1l8-1 15 3 20 4h3c2 0 3 1 3 2 0 2-3 4-5 5-9 3-19 6-30 7zm-29-30h-3l-12-4c-7-4-14-9-22-10h-7c-5 0-10 0-16-4-10-6-21-10-31-11-4 0-6-3-8-6l-1-2 1 1c13 10 27 10 41 10h5c7 0 14 4 17 8 3 5 6 5 9 5h4c4 0 6 1 8 5 0 2 2 2 3 2h6l5 1 1 4v1zm-104-53v-2l2 1c17 5 38 11 60 10 28-2 54 6 84 25l2 2c10 6 20 13 32 13h1v1c0 3-1 4-2 4h-1c-8 0-17 1-25-4-9-5-19-7-29-8h-7l-2 1c-2 1-3 2-4 1l-1-2-2-3h-3c-5 2-10 0-16-2l-9-3c-4-1-9-4-13-7l-5-4-11-3h-3c-16 1-31 1-42-11l-6-9zm-11-3c-2-2-1-3-1-5l1-1c1 0 2 1 2 3v1l2 7-4-5zm7-15c-1-4 1-8 4-11l8-9c6-7 12-13 21-16 21-5 44-3 70 6 18 5 37 12 53 25l1 1c18 14 34 28 34 53-1 6-2 10-5 11s-6 0-10-1a252 252 0 01-44-25c-16-9-35-14-58-14-22 0-45-1-67-10-4-2-6-6-7-10zm175 80v1c-1 1-5-1-6-1l-10-1-20-4c-5-2-9-2-14-1l-11-1 1-1 8-5c8-2 16 1 23 4l5 2 15 5s9 0 9 2zm-3 18c3-1 6-3 7-6 2-3 2-7 5-11l4-5c9-11 14-29 8-42-2-7-5-12-9-18-16-19-33-33-54-42-22-9-46-18-72-18h-4c-9-1-18-1-26 2-4 1-8 3-11 6-21 17-39 35-37 65v2c2 17 3 36 22 48 11 6 23 9 35 12a530 530 0 0122 5c21 6 42 11 64 11 11 1 23 0 34-3l12-6M15 1470h1l3-2 14-5c6-2 11-6 14-11 6-11 13-22 25-29l2-4v-2c0-11 6-17 13-23l8-8 5-8 3-6c3-4 4-8 4-12l2-7 7-14c3-6 6-13 10-18l1-3 2-2c3 1 3 4 4 6 0 10 0 20-2 31-4 17-12 32-21 47l-2 5-3 5c-10 18-21 36-34 53-8 10-19 14-31 13a59 59 0 01-20-4l-5-2zm79-98l-1 2c-2 4-4 8-8 11-6 5-12 11-15 18l-3 7c-2 5-3 9-8 13-9 8-16 18-20 27-1 3-5 5-8 6l-2 1 2-2c13-9 17-23 21-36l1-4c3-7 9-13 13-14 5-2 6-4 7-7l1-1 1-3c1-4 2-6 6-6 3 0 3-2 4-3v-1l1-4 2-5h5l1 1zm-82 83h-1l1-2c10-15 22-33 27-54 7-27 22-50 49-73l2-2c9-7 18-14 22-27h2c3 1 3 2 3 3v1c-2 8-5 17-12 23-7 7-12 16-16 26l-1 6v6l-3 1-3 1-1 2c0 6-4 10-7 15l-6 8c-2 4-6 7-10 10l-5 4c-4 4-5 6-6 10l-1 3c-5 15-9 29-23 37l-11 2zm-6 10c-2 1-3 1-4-1l-1-1 3-1h9l-7 3zm116-155l1 1c1 1-2 4-3 5l-4 9c-3 6-6 13-10 18-3 4-4 9-5 13l-4 10-3-10c0-8 6-14 11-21l4-3 8-13c0-1 3-9 5-9zM18 1479c18 4 36 8 52-6 10-9 17-20 23-31a526 526 0 0111-19c11-18 23-37 30-58 3-11 6-22 6-33l-1-14-4-8-9-8-4-5c-8-12-23-23-38-20-7 0-13 0-19 3a136 136 0 00-65 50v10c10-14 21-27 36-37h1c18-13 36-25 60-17 6 2 9 5 9 8s-1 5-4 9c-8 10-18 18-27 27l-10 8c-13 13-23 29-30 51-6 21-14 43-30 61-1 2-3 3-5 3v19c5 3 10 5 16 6l2 1M15 809h1a738 738 0 0017-7c6-2 11-6 14-11 6-10 13-22 25-29l2-3v-3c0-10 6-16 13-23l8-7 5-8 3-6c3-4 4-9 4-12l2-8 7-14 10-18 1-2 2-3c3 1 3 4 4 6 0 10 0 20-2 31a155 155 0 01-23 52l-3 5c-10 18-21 37-34 53-8 10-19 14-31 14a58 58 0 01-20-5l-5-1v-1zm79-98l-1 3c-2 3-4 7-8 10-6 6-12 11-15 18l-3 7c-2 5-3 10-8 14-9 8-16 17-20 26-1 4-5 5-8 6l-2 1 2-1c13-10 17-23 21-36l1-5c3-7 9-12 13-14 5-2 6-4 7-7l1-1 1-2c1-4 2-7 6-7 3 0 3-2 4-3l1-5 2-5 5 1h1zm-82 83h-1l1-1c10-15 22-34 27-55 7-27 22-50 49-72l2-2c9-8 18-15 22-27l1-1h1c3 1 3 3 3 3v2c-2 7-5 16-12 23s-12 16-16 25l-1 6v7h-3l-3 2-1 2c0 6-4 10-7 14l-6 8c-2 4-6 7-10 11l-5 4c-4 3-5 6-6 9l-1 3c-5 15-9 29-23 37-3 1-6 3-11 2zm-6 10H2l-1-2h12l-7 2zm116-154h1c1 1-2 5-3 6l-4 8-10 19c-3 4-4 8-5 12l-4 11v-1c-2-3-3-7-3-10 0-8 6-14 11-20l4-4 8-13c0-1 3-8 5-8zM18 818c18 4 36 8 52-6 10-9 17-20 23-30a575 575 0 0111-19c11-19 23-38 30-59 3-10 6-21 6-33l-1-13-4-8-9-9-4-5c-8-11-23-22-38-20-7 0-13 1-19 3a136 136 0 00-65 50v10c10-13 21-27 36-36l1-1c18-13 36-24 60-16 6 2 9 4 9 8 0 2-1 5-4 8a252 252 0 01-37 36c-13 12-23 28-30 51-6 20-14 42-30 60l-5 4v19l16 6h2M1128 699h-1c-4-5-9-8-14-11l-5-3h1c8-1 14-3 19-7 7-5 10-14 8-24-2-19-4-33-12-40-24-29-44-43-67-52 15 1 29 6 46 17 24 17 38 39 41 66 3 21-6 38-16 53v1zm-11-81h1c10 10 11 28 11 45 0 3-2 7-6 10-5 4-12 6-16 4a1705 1705 0 01-29-15l-2-8c-3-3-6-2-10-2h-6l-6-2-6-3-9-4c-6-1-10-3-11-6-1-2-1-5 1-9v-6c-1-1-2-2-5-2-18-1-33-6-45-14h-1c-4-4-7-6-5-11v-3l-3-1-4-1c-1-1 2-4 3-5 3-4 6-7 10-9 11-9 25-13 41-13 37 0 67 17 97 55zm-152-16c10 12 24 16 38 20l5 1 3 1c1 4 2 6 4 7 2 0 4 0 6-3v1c-2 4-2 7-1 10 2 4 6 6 11 7l17 8 1 1 8 2c3 0 6 0 8 2 9 8 21 13 31 19l3 1 1 1h-3l-6-2-13-5c-22-5-42-17-60-29l-4-3-34-23-18-12v-1h-1v-1l2-1c1-2 2-1 2-1zm28 33c1 2 1 5 5 6l36 20a1686 1686 0 0013 7c3 1 5 2 4 5s0 4 1 4h5c0 4 1 6 2 7l2-1 3-3 1-2 2-1h2l3 1c16 5 33 11 46 23 3 2 5 5 5 8s-2 6-6 9a86 86 0 01-63 16c-31-3-53-14-70-36l-15-24c-7-9-14-19-19-31-5-11-4-20 1-28l3-3c2-2 4-3 9 1 9 8 18 15 29 20l1 2zm-17-64l-5 3-4 3c-4 2-8 6-7 13 0 6-1 9-5 12l-2 1c-13 10-16 29-7 47l16 26 14 22c7 14 19 25 33 31a115 115 0 00110-3c5-4 8-8 9-13 2-7 6-13 10-20 19-30 16-66-8-97-20-25-47-39-79-41-25-2-52-2-75 15v1M853 1168c-6 0-12 2-17 5l-5 2h-1l1-1c4-7 6-13 6-19 0-9-5-16-14-22-16-9-29-16-40-14-37 2-61 9-81 22 9-11 22-19 41-26 28-9 54-7 78 7 17 10 25 28 32 45v1zm-71-41c15-3 30 8 44 18 2 2 4 6 4 11 0 6-3 12-7 14a1694 1694 0 01-29 15c-3-2-6-4-8-3-3 0-5 3-7 6l-3 4-1 1-5 4-6 3-9 5c-4 3-8 6-11 5s-5-3-7-7c-1-2-2-3-4-3-1 0-3 0-5 3a91 91 0 01-39 27c-6 2-9 3-12-2l-2-1-3 1-3 3-2-5v-1l-2-13c0-14 5-28 15-41 22-29 54-43 102-44zm-103 112c15-1 26-10 37-18l5-4 2-1h8c2-1 2-3 2-6 2 4 5 6 8 7 4 1 8-1 12-4 5-4 11-7 17-9l7-6c2-2 4-4 6-4 13-3 24-9 35-14l2-2h2l-2 2-6 4-11 8c-18 14-39 22-60 30l-4 2-39 13-21 6-2 1v-1-2c0-2 1-2 2-2zm43-2h7c12-7 25-13 37-18l12-5 2-1c3-2 4-3 6 0l4 2c2 0 3-2 3-4 4 2 6 3 7 2l1-2-1-4-1-2 1-2v-2l3-2c14-10 29-19 46-23 4-1 7 0 9 1 3 2 4 6 4 10v1c0 22-8 42-24 59a94 94 0 01-72 34l-28-2c-12 0-24-1-36-4-12-2-19-8-22-18l-1-4c0-2 1-5 7-6 11-3 23-5 33-11l3 1zm-63-26v11c0 5 1 10 6 14 5 3 7 6 7 11l-1 2c0 17 14 31 34 34l30 3 25 2c16 2 32-1 46-8a115 115 0 0064-90c0-5-2-10-5-14l-10-20c-13-34-43-53-82-52-33 0-60 13-81 38-17 19-33 40-33 69M360 671l-1 1c-6 0-11 2-16 5l-5 2h-1v-1c4-7 7-13 7-19 0-9-5-17-15-22-16-9-29-16-39-14-37 2-61 9-81 22 9-11 22-20 41-26 28-10 54-7 77 7 18 10 26 27 33 44v1zm-71-41c15-2 30 9 43 18 3 2 5 7 5 11 0 7-3 13-7 15a1701 1701 0 01-29 15c-3-3-6-4-8-3-4 0-6 3-8 6l-2 4-2 1-4 4-6 3-9 5c-5 3-9 5-12 5-2-1-4-3-6-7-1-2-3-3-5-3-1 0-3 0-5 2a91 91 0 01-38 28h-1c-5 2-8 3-11-2l-2-1-3 1c-3 3-4 2-4 2l-2-4v-1l-1-13c0-14 5-28 15-41 22-29 54-43 102-45zM185 742c16 0 27-9 38-18l5-3 2-1h8c2-1 2-3 2-7v1c2 4 5 6 7 7 4 1 9-2 13-4 5-4 11-7 17-9l7-6 6-5c12-3 23-8 34-14l3-1h1l-1 2-6 4-12 8c-17 14-39 22-59 30l-5 1-39 13-20 7h-1-1v-2l1-3zm43-2c2 1 4 2 8 0l37-17a1722 1722 0 0013-6c3-2 5-3 7 0l4 2 3-4c3 2 5 3 7 2l1-2-1-4-1-3v-2l1-1 3-2c14-10 29-19 46-23 3-1 7-1 9 1s4 6 4 10v1c0 21-8 41-25 59a94 94 0 01-72 34l-27-2c-12-1-24-1-36-4s-19-8-22-18l-1-4c0-2 1-5 6-6h1c11-3 22-5 33-11h2zm-62-25v11c0 4 0 10 6 13 5 3 7 7 6 12v2c0 16 14 30 33 34l30 2c9 1 18 1 26 3 16 2 32-1 46-8a115 115 0 0063-90c0-6-1-10-4-14-4-6-8-13-10-20-13-34-44-54-82-53-33 1-60 14-82 39-16 19-32 39-32 68v1M1355 621h-1l-17 5-4 2h-1c4-7 6-14 6-20 0-9-4-16-14-21-16-10-29-17-39-15-37 3-61 9-81 23 9-12 22-20 41-27 28-9 54-7 77 7 18 11 26 28 33 45v1zm-71-41c14-2 30 8 43 18 3 2 5 6 5 11 0 7-3 13-7 15a1712 1712 0 01-29 15c-4-3-6-4-9-4-3 1-5 4-7 7l-2 3-2 2-4 4-6 3-9 4c-5 4-9 6-12 5-2 0-4-2-6-6-1-2-3-3-5-3-1-1-3 0-5 2a91 91 0 01-38 28h-1c-5 2-8 2-11-2l-2-2-3 1-4 3-2-5-1-14c0-14 5-27 14-40 23-30 54-43 103-45zm-104 112c16-1 27-10 38-18l5-4 2-1c3 1 6 2 8 0l2-6c2 4 4 7 7 7 4 1 9-1 12-4l18-9c3-1 5-3 7-6 2-2 4-4 6-4 12-3 23-9 34-14l3-1 1-1v1l-1 2-6 4-12 7c-17 14-39 23-59 30l-5 2-39 13-20 6-1 1h-1v-1-2l1-2zm43-2c2 1 4 2 8 0 12-7 25-12 37-18a1721 1721 0 0013-6c3-2 5-2 7 1 1 2 3 1 4 1s2-1 2-4h1c3 3 5 3 6 3l2-2-2-4v-3-2l1-2 3-2c14-9 29-19 46-23 3-1 6 0 9 2 2 2 4 5 4 10 0 22-9 42-25 60a94 94 0 01-72 34c-8-2-18-2-27-3-12 0-24 0-36-3s-19-9-22-18l-1-4c0-3 0-5 6-7h1c11-2 22-5 33-10h2zm-62-25v5l-1 6c0 4 1 9 7 13 5 3 6 6 6 11v2c0 17 14 31 33 34l30 3 26 2c16 3 32 0 45-7a115 115 0 0064-90c0-6-1-11-4-15-4-6-8-12-11-20-12-34-43-53-81-52-33 1-60 14-82 38-16 19-32 40-32 69v1M1155 912l2 2c6 4 13 8 13 14 0 1-5 4-9 5l-7 5c-8 5-17 8-29 9-4 0-7 3-9 8l-3 4-6-1c-5-2-9-3-12-1-2 2-2 5-2 11 0 3-2 3-3 4l-21 6c-9 3-19 6-30 7-6 1-11 1-15-2l-5-5c-6-9-7-18-2-26 9-15 23-27 41-34 14-6 27-10 40-14 19-4 38-2 56 8h1zm18 26c-1 2-6 3-8 3l-8 6c-7 6-14 11-24 11l-5 1c-2 2-2 9-6 9-2 0-4-2-7 0s-1 6-4 8-5 0-8 1l-6 1c-6 2-10 5-13 10-1 1-2 2-4 1-7-2-14-2-20 0-4 0-7 2-10 3l-9 5h-3l-4 1c-3 1-8 3-11 2l-2-3c-1-1-2-3-1-5s7 1 9 1a223 223 0 0044-10l18-5c5-1 8-4 9-9 0-5 5-4 8-3 4 0 8 0 10-4 4-8 11-9 18-11h2c9-1 16-6 22-10l7-3 4-3c1 0 4 1 2 3zm11 11c3 3 2 6-1 11l-1 1-4 6c-17 17-36 31-55 45l-3 2c-23 17-47 11-72 3l-7-4c-3-1-5-3-6-6v-1l2-2 2-1h1l12-4c9-3 17-6 26-3 5 1 8 0 11-4 2-5 7-7 14-8h4c5 1 12 2 14-8l1-1c4 1 6 1 8-1 2-1 3-4 3-7v-2l1-1c10 0 18-5 25-11l9-6c5-3 10-2 16 2zm-7 30l-1 3c-14 23-35 40-64 54-22 11-41 12-59 3l-4-2c-4-2-8-3-11-6-6-3-18-13-12-20l2-2 1 3 9 8 10 4c24 9 52 14 77-5l4-3c18-13 36-27 52-42l-4 5zm-56-83c-21-2-41 6-60 13-20 7-35 19-47 35-8 11-11 21-9 31l12 42c3 9 10 17 19 23 8 5 18 8 31 11 26 5 48-7 64-17 23-16 49-36 61-68 2-5 4-9 0-16l-6-7-5-5c-3-4 1-9-2-13a72 72 0 00-58-29M1120 1449l-2 2c-6 5-11 9-17 8l-3-10-1-8c-3-10-3-19 0-31 1-4-1-8-5-11-2-1-3-2-3-4l2-5c4-5 6-8 5-11s-4-4-9-6c-3-1-3-3-3-4l1-21c0-11 0-21 2-31 1-6 3-11 7-15l6-3c10-2 19 0 25 7 12 13 19 30 20 50v42c-1 19-9 37-24 51h-1zm-30 10l-1-9-3-10c-2-8-5-16-2-26v-4c-2-3-8-5-7-9l3-6c-1-4-6-4-7-7l2-7 1-7c0-6-2-11-5-15-1-1-2-3 0-4 4-6 6-13 6-20v-10l-1-10v-3-5c0-3 0-8 2-10l3-2 5 1c2 2-3 6-4 9l-2 12c-2 11-2 21-2 32v20c-1 4 1 8 5 10 5 2 3 6 1 10-2 3-3 7 1 10 6 6 5 13 4 20v2c-2 9 0 17 2 25l1 7c1 1 2 3 1 4 0 2-1 5-3 2zm-14 7c-3 2-6-1-9-5l-1-1-5-6c-11-21-18-44-25-65l-2-4c-8-27 5-48 20-69l5-6c3-2 6-4 9-4l1 3 1 2v1 13c0 9 1 18-5 26-3 4-3 7 0 11 4 4 5 9 3 16l-1 4c-3 4-5 11 4 15l-1 2c-1 3-2 5-1 8 1 2 3 3 7 4l1 1v1c-3 10 0 19 3 28l3 10c1 6-1 11-7 15zm-26-16l-3-3c-17-20-27-45-31-77-4-24 1-43 15-57l3-3 9-9c6-4 18-13 24-5l1 3h-3c-4 1-8 3-11 6l-7 8c-15 20-29 45-19 75l2 5a550 550 0 0020 57zm97-27c7-20 6-41 6-62-1-21-8-39-19-56-8-10-17-16-27-17-13-2-27-2-43-2-10 0-20 4-28 11-7 6-13 14-20 26-13 23-9 47-4 66 8 27 19 57 46 79 4 3 7 6 15 5 3 0 6-2 8-3 2-2 4-4 7-4 4-1 8 4 12 3a72 72 0 0047-46M501 1487l-3 2c-6 3-12 7-17 5-2 0-2-6-2-10l-1-8c-2-10-1-19 4-30 1-4 0-8-4-12l-2-4c0-2 1-3 3-5 4-5 6-8 6-11l-9-7c-3-1-3-2-2-4l3-21c1-10 2-21 5-30 2-7 5-11 9-14l6-2c11-2 19 1 25 9 10 14 15 32 14 52l-4 42c-4 19-14 35-31 48zm-31 6v-9l-2-10c-2-9-4-17 1-26v-5c-1-2-7-5-5-9 1-2 3-3 3-6-1-3-5-4-6-8l3-6 1-7c1-6 0-11-4-16 0-1-1-2 1-4 5-5 8-11 9-18l1-10-1-10 1-4 1-4 2-10c1-1 3-2 4-1l5 1c1 2-4 6-5 8l-4 11v1c-3 10-4 21-5 32-1 6-1 13-3 19 0 5 1 9 5 11s2 7 0 10c-3 3-4 7-1 10 6 7 4 13 2 21v2c-3 8-2 16-1 24l1 7v5c0 2-2 4-3 1zm-15 5c-3 2-6-1-9-5l-1-1-4-7c-8-22-13-45-18-68v-4c-6-28 9-47 27-66 2-3 4-4 6-5l8-4 1 1 1 3v3l-1 12c-1 10-2 18-8 26-4 4-4 7-1 11s4 9 1 16l-2 4c-3 4-6 10 2 16v1c-2 3-3 5-2 8 0 2 2 4 6 5l1 2c-4 10-2 19 0 28l2 10c0 6-3 11-9 14zm-25-18l-2-3c-14-22-21-48-22-80-1-25 6-43 21-55a265 265 0 0014-11c5-4 19-11 24-2l1 2-4 1c-4 0-7 2-11 4l-8 7c-17 19-34 42-27 73l1 4a551 551 0 0013 60zm100-17c10-19 11-40 13-60 1-21-3-40-13-57-6-12-14-19-24-21l-43-7c-10-1-20 2-29 8-8 5-15 13-23 24-15 21-14 46-11 65 5 27 12 59 37 84 3 3 6 7 14 6l9-2c2-1 4-3 7-3 4-1 7 5 12 4a72 72 0 0051-41M680 219l-7-6-9-4c-8-3-16-7-21-15l-4-3c-2-1-5 0-7 1l-3 1v-1l-1-1c0-3-1-6-4-7-2-1-4 0-6 2h-1l-5-6c-5-6-10-13-20-12-2 0-3-1-3-3-3-12-12-19-20-26-5-3-9-9-14-10-4 0-10 0-12 4-3 2-3 8-3 12l2 11c5 24 14 51 44 63l5 2a550 550 0 0056 22h-3c-27 0-53-9-79-26-21-14-32-30-33-49l-1-5-1-12c0-10 3-16 8-21l6-6c5-4 10-8 13-14l-1 5c0 8 5 13 10 18 7 9 15 16 23 23l15 13c5 4 9 5 13 1l2-1 2 2 2 4c1 4 3 9 9 8 9-1 13 4 18 10l1 2c6 6 13 10 20 14l11 5c2 2 1 6-2 5zm-4 14c0 4-4 5-9 5a844 844 0 00-9-1c-23-5-45-15-66-23l-4-2c-26-11-34-35-40-60l-1-8c0-13 13-2 18 2 8 6 15 11 17 21 1 5 4 7 8 7 6-1 10 2 14 8l3 4c2 4 5 11 14 7l1 1c1 3 3 5 5 6s5 0 8-2h2c6 9 15 13 23 16l10 4c5 3 7 8 6 15zM566 107c5-10 12-15 21-15 18-1 35 5 51 17 12 9 23 18 32 27 14 14 22 32 23 53v3c-1 7-1 15-6 18-1 1-6-3-9-4l-7-5c-9-3-16-10-23-20-3-3-6-4-12-3l-4-1c-2 0-2-2-3-5-1-6-3-9-5-11-3-1-6 1-11 4-2 1-4 0-5-1l-15-14c-8-7-16-14-22-22-4-5-7-10-7-15l2-6zm134 83c0-13-3-25-10-38-10-19-27-32-43-45s-35-20-54-22c-13-1-24 2-31 9-10 8-20 19-30 31-6 8-10 18-10 29 0 9 2 19 7 31 9 25 30 38 48 46 25 12 55 24 89 18 5-1 10-2 14-8a22 22 0 003-15c4-2 7-5 10-9 2-1 3-3 3-5 3-7 4-15 4-22M1035 874l-7-7-9-4c-9-3-17-6-21-15l-4-3c-2 0-5 0-7 2l-3 1v-1l-1-2c-1-3-1-6-4-7-2 0-4 0-7 3v-1l-5-5c-5-7-10-13-20-13-2 0-3 0-3-3-3-12-12-19-20-25-5-4-9-9-14-10-4-1-10 0-13 3-2 3-2 9-2 12l2 11c5 25 14 52 44 63l4 2a550 550 0 0057 23h-4c-26-1-52-10-78-27-21-13-32-29-34-49v-4l-1-13c0-9 3-16 8-21l6-6c5-4 10-8 13-13l-1 5c0 7 5 12 10 18l23 22 15 13c5 5 9 5 13 1l2-1 2 2v1l1 4c2 3 3 9 9 8 9-1 14 4 19 10l1 1c5 7 13 11 20 14 3 2 8 3 11 6 1 1 1 5-2 5zm-4 14c0 4-4 4-9 4h-2l-8-1c-22-5-44-14-66-23l-3-2c-27-11-34-34-40-60l-1-7c0-14 13-3 18 1 8 6 14 12 17 21 1 5 3 7 8 7 6 0 10 2 14 8l2 4c3 5 6 11 15 7l1 1c1 4 3 6 5 7 2 0 5 0 8-2l2-1v1c6 9 15 12 23 15l9 5c6 2 8 8 7 15zM921 761c4-10 12-15 21-15 18 0 35 6 51 18 12 8 23 17 32 27 14 14 22 31 23 52v1l-1 3c0 7 0 14-5 17-1 1-6-2-9-4l-7-4c-9-4-17-10-23-20-3-4-7-5-12-4h-5l-2-5c-1-6-3-10-5-11-3-1-6 0-11 3-3 2-4 1-5 0l-16-15c-7-7-15-13-21-22-4-5-7-9-7-14l2-7zm134 83c0-12-4-25-10-38-10-19-27-32-43-44-17-13-35-21-54-23-14-1-24 2-31 9-10 9-20 19-30 32-7 8-10 17-10 28 0 9 2 19 7 32 9 25 30 37 47 46 26 12 56 24 90 17 5-1 10-1 14-8a22 22 0 002-15c5-2 8-4 11-8l3-5c3-8 4-15 4-23M1508 1431l-7-6-9-4c-8-3-16-7-21-15l-4-3c-2-1-5 0-7 1l-3 1v-1l-1-1c0-3-1-6-4-7-2-1-4 0-6 2h-1l-5-6c-5-6-10-13-20-12-2 0-3-1-3-3-3-12-12-19-20-26-5-3-9-9-14-10-4 0-10 0-12 4-3 2-3 8-3 12l2 11c5 24 14 51 44 63l5 2a550 550 0 0056 22h-3c-27 0-53-9-79-26-21-14-32-30-33-49l-1-5-1-12c0-10 3-16 8-21l6-6c5-4 10-8 13-14l-1 5c0 8 5 13 10 18 7 9 15 16 23 23l15 13c5 4 9 5 13 1l2-1 2 2 2 4c1 4 3 9 8 8 9-1 14 4 19 10l1 2c6 6 13 10 20 14l11 5c1 2 1 6-2 5zm-4 14c0 4-4 5-9 5h-1l-9-1c-22-5-44-15-65-23l-4-2c-27-11-34-35-40-60l-1-8c0-13 13-2 18 2 8 6 15 11 17 21 1 5 3 7 8 7 6-1 10 2 14 8l3 4c2 4 5 11 14 7l1 1c1 3 3 5 5 6s5 0 8-2h2c6 9 15 13 23 16l9 4c6 3 8 8 7 15zm-110-126c5-10 12-15 21-15 18-1 35 5 51 17 12 9 23 18 32 27 14 14 22 32 23 53v3c-1 7-1 15-6 18-1 1-6-3-9-4l-7-5c-9-3-16-10-23-20-3-3-6-4-12-3l-4-1c-2 0-3-2-3-5-1-6-3-9-5-11-3-1-6 1-11 4-2 1-4 0-5-1l-15-14c-8-7-16-14-22-22-4-5-7-10-7-15l2-6zm134 83c0-13-3-25-10-38-10-19-27-32-43-45s-35-20-54-22c-14-1-24 2-31 9-10 9-20 19-30 31-7 8-10 18-10 29 0 9 2 19 7 31 9 25 30 38 47 46 26 12 56 24 90 18 5-1 10-2 14-8a22 22 0 002-15c5-2 8-5 11-9 2-1 3-3 3-5 3-7 4-15 4-22M283 1013c-22 8-40-2-57-13-29-20-44-50-47-92a46 46 0 0118-42l5-3c2 1 3 2 5 6l7 10c4 5 7 9 8 13 2 6 6 11 9 16 6 7 11 14 10 23 0 4 2 7 5 10l4 5c3 7 9 11 18 10l1 3c7 14 15 27 23 38 2 3-1 9-7 14l-2 2zm-89-178c3-4 6-7 10-9 16-12 36-11 54-8 8 1 15 3 22 7 3 2 8 3 10 6s0 3-2 2l-7-4-17-5a52 52 0 00-45 16c-5 6-6 13-3 21l6 5c4 2 7 4 6 10-1 1 0 2 1 2l5 4-1 3-1 1 1 1s1 2 3 2h5v8c-1 1 0 3 1 4 5 8 9 17 11 24 1 2 2 6 7 6l3-1h3l-2 5v2l3 3c7 3 10 10 12 16l1 1 2 5 3 9v2c-2 0-2-2-2-3l-6-12c-2-5-5-11-14-9l-3-3c-2-5-4-10-8-12s-5-3-4-6c0-4 0-8-3-10-6-7-10-15-14-23l-14-22-2-2-1-3c-3-6-7-10-11-11-5-1-11 2-16 9-1 1-3 4-5 4-4 0 2-15 3-17 2-6 5-13 9-18zm125 46l3 7c8 15 15 30 16 48a47 47 0 01-34 47c-2 1-4 0-5-2-6-7-11-15-12-25 0-3-1-6-5-7-3-2-4-4-4-7 0-1 0-6-2-6l-3-2 1-3v-2-5c-2-2-6-1-8 0h-5c-2-1-3-2-4-6-2-6-4-13-9-19-1-2-2-3-1-6 1-2 2-6 1-8l-6-2 1-4c-1-2-3-4-6-5l-4-4 1-3 1-2-4-3h-1c-5-2-8-5-9-8-1-4 1-8 4-11l5-5c18-13 43-11 59 5a161 161 0 0125 31l5 7zm-20 121c1-6 0-9 6-12 6 0 11-3 17-7 14-11 24-28 23-41-1-33-12-63-31-91-19-26-39-43-71-41-18 1-32 3-44 12-5 4-10 10-13 16-9 16-13 33-14 56-1 51 15 87 50 111 20 14 42 26 68 12 5-3 9-9 9-15M264 335c-20 12-39 7-58-1-32-14-53-41-64-82-5-16-1-31 9-44l1-1c2-2 3-3 5-3l5 4 9 9c5 4 9 8 11 12 3 5 7 10 12 14 6 5 13 11 14 20 0 4 3 6 6 8l5 5c5 7 12 9 20 7l1 2 30 33c3 3 2 9-3 15l-3 2zM143 178l8-11c13-15 34-17 52-18 7-1 15 0 23 3 3 1 8 1 11 4 2 2 0 2-2 2l-7-2c-6-2-12-2-18-2a51 51 0 00-41 24c-5 7-4 14 1 21l7 4c4 1 7 2 7 8 0 2 1 2 2 2 1 1 4 1 5 3v4l-1 1h1l4 2c3-2 4-1 5-1l1 7 2 5c7 6 12 14 16 21 0 2 2 5 7 4l3-1 3-1s1 1-1 5v3l4 2c7 1 12 8 15 13l1 1 3 5 5 7v3c-2 1-2-2-3-3l-8-10c-3-4-7-10-15-7-1 1-2 1-3-2h-1c-2-4-6-9-10-10-5-1-5-2-5-5 0-4-2-8-5-10-7-5-13-12-18-19-6-7-11-14-18-19l-2-2-2-3c-5-5-9-8-13-8-5 0-10 3-14 11-1 2-2 5-4 5-4 1-1-15-1-17 1-6 3-13 6-19zm131 21l5 6c10 13 21 27 25 44a47 47 0 01-25 53c-2 1-3 0-5-1-7-6-14-13-16-22-1-3-3-5-6-6-4-1-5-3-6-6 0-1-1-6-3-6l-3-1v-3-2c0-3 0-4-2-5-2-2-5 0-7 1s-4 2-5 1c-2 0-3-2-5-5-3-6-7-12-13-17-1-1-2-2-1-5 0-3 0-6-2-8-1-1-3-2-6-1v-4c-1-2-3-3-6-4l-5-3 1-3v-2c-1-2-3-2-5-2h-1c-5-1-8-4-10-7-1-3 0-7 2-12l4-5c15-16 40-19 59-7a161 161 0 0136 32zm5 123c-1-6-2-9 3-13 5-2 10-6 15-11 12-13 18-31 15-44-7-32-24-60-48-83-24-22-46-36-78-27-17 4-30 9-40 20-5 5-8 11-11 19-5 16-6 34-2 56 9 52 31 83 70 100 23 10 46 18 69-1 5-4 7-10 7-16M215 1227c-7 22-26 31-44 37-34 11-67 6-103-17a46 46 0 01-22-41l1-5 7-1 13 1c5 0 11 0 15 2 6 2 12 2 18 2 9 0 17 0 24 6 3 3 7 2 11 2h6c8 2 15-1 19-8h3c15 3 31 4 45 5 4 0 7 6 7 13v4zm-195-37c-2-4-2-8-2-13 0-20 13-35 26-48 6-5 12-10 19-13 4-1 7-4 11-4 3 0 2 1 0 3l-7 3a52 52 0 00-29 56c2 7 7 12 15 14l8-2c4-1 7-3 11 2h3c1 0 4-2 5-1l3 3v1h1s3 0 4-2l3-4c2 0 4 3 6 5 1 2 3 2 4 2 10 0 18 3 26 6 2 0 6 1 8-2l2-3 2-3 2 4 2 2 4-1c6-3 14-1 20 0l2 1 5 1 8 2c1 0 3 1 2 2 0 2-3 0-3 0l-14-2c-5-2-11-3-15 5h-4c-5-1-11-2-15 0s-5 2-7 0c-3-3-6-5-10-5-9 1-18 0-27-2-9-1-17-2-25-1l-3-1h-4c-6-2-12-1-15 2-4 3-5 9-2 18v6c-2 3-11-11-12-12-4-6-7-12-8-19zm111-72l8 2c16 3 33 6 48 16a47 47 0 0117 56c-1 2-3 2-5 3-9 0-19 0-27-6-3-2-5-2-9-1-3 2-5 2-8 0 0-1-4-4-6-2l-3 1-2-2-1-2c-2-2-3-3-5-3-2 1-4 4-4 6l-3 5c-2 1-4 0-7-1-7-2-14-4-22-4l-4-3c-2-2-4-5-6-5l-6 3-2-3c-2-1-5 0-8 1-2 1-4 2-5 1l-2-2-1-2-5 2h-1c-4 3-8 4-11 2-4-1-6-5-7-10v-7c0-21 17-40 39-44a161 161 0 0139-1h9zm85 89c-4-4-7-5-6-12 3-4 4-11 4-18 0-17-8-35-19-43-26-19-57-29-90-29-33-1-59 4-76 31-10 15-17 28-17 42 0 7 2 14 5 21 7 16 18 30 36 44 41 32 78 41 119 28 23-8 46-18 50-48 1-6-1-12-6-16M1371 1169v7c0 17-6 34-11 51l-7 23c-3 12-6 23-17 30v1c-6 3-10 5-15 2l-3-4 1-5 1-4 2-10v-7c0-3 3-5 5-7l5-9c2-6 2-13 3-19 0-5-1-14 3-17 4-4 7-6 9-10l1-8c2 0 5 1 6-2l1-2-1-2c-3-5-4-11-4-16 0-7 2-14 4-21l4-17v-1-4-4-1l1-1c2 0 3 1 5 5 7 13 8 27 8 39l-1 13zm-50 121l-16-4c-3-1-11-3-12-6-1-4 7-9 10-12 4-5 7-11 7-19l2-10 2-12-1-5c0-2 2-4 3-4 6-3 8-8 8-13l1-3c0-7 1-16 4-22l1-5 2-4c1-3 4-2 6-4 2-1 2-3 2-5v-3l4-14 4-15 2-9-2-8-1-2 2-2h2l1 3v4c0 8-1 17-5 28-1 4-3 10-3 16l3 12v1l2 4-4 1c-5-1-3 7-4 10-2 4-4 6-8 8-3 3-3 7-3 11l-2 13-2 11c0 6-4 9-7 14-3 6-4 12-4 18l-2 12c-2 6 1 12 8 15zm-45-27c-11-22-17-43-17-63 0-11 1-21 4-31 7-23 16-49 41-65 8-5 16-9 25-11 2-1 4 0 6 1l1 1c2 0 4 2 4 3l-4-2c-10-2-17 3-23 10-20 21-26 50-29 72a284 284 0 001 84v4c-1 2 0 7-3 5l-6-8zm65-148l1 7c0 7-2 14-4 22l-3 12c0 1-1 4-3 5l-4 2c-3 3-4 7-4 11 0 5-1 9-3 13l-1 4v3l-1 3c0 6-1 12-7 16-3 2-4 6-4 10l-1 3-1 11c-1 10-2 20-9 28l-4 2-1-2v-1l-3-50c0-26 3-49 10-70 4-15 12-27 22-37 5-5 10-7 15-5 4 1 4 4 5 9v4zm37 52v-7c-1-16-1-32-9-47-4-7-10-11-17-11-3 0-3 0-4-3-2-6-7-11-14-14h-11c-20 12-41 24-53 48-12 25-18 44-18 63l3 24 2 8c6 36 24 58 54 67h2c6 2 13 4 20-1 15-12 24-27 28-45l7-24c5-19 10-38 10-58M450 24a2066 2066 0 01-4 29c0 25 10 45 30 60l2 1c5 4 11 9 19 7 19-6 33-17 44-33l15-21c11-16 24-32 31-52l2-6 3-9h-6a377 377 0 01-9 21c-7 17-18 32-29 45l-15 20c-7 10-14 20-28 23-6 1-11 2-15-3l-1-4 3-6 2-3 8-17c13-4 20-16 25-27l3-8 4-3 5-4c2-4 6-8 10-11 3-1 6-1 8-3 3-2 3-6 3-9l2-11h-6v1c-2 6 1 12-7 14-3 1-6 3-8 6-3 2-3 6-7 8l-6 5-3 6-5 8c-4 4-6 9-8 13-1 3-3 5-5 6l-6 3-10 14-6 12c-4 4-3 10 3 16v1c-9-6-19-13-25-22l2-1h1c11-4 21-9 26-20 1-4 3-7 6-10l5-8v-7c1-5 11-3 14-7 4-3 5-7 7-11l9-15c2-4 6-10 11-10 3-1 5 1 7-2h-18l-2 3c-1 5-3 8-7 11l-2 4-1 2-1 3c-2 4-4 8-7 10-4 3-9 1-12 3-3 3-4 6-4 9-1 3-1 6-3 8l-5 8-3 7c-3 4-6 8-10 10-2 1-4 3-6 2-2-2-1-4 0-6l2-9a488 488 0 0124-65h-7a246 246 0 00-18 46l-7 24c0 2-1 7-3 8-3 2-4-2-5-4-3-8-3-16-3-25 0-18 3-34 9-49h-7l-5 22v2M429 986l6 3c17 8 31 20 44 31l19 16c10 8 19 15 21 28v1c1 6 2 11-3 15l-4 1c-2 0-4-2-5-3l-3-3-17-9c-4-13-15-20-27-26l-7-3c-2-1-2-3-3-5l-4-4c-4-3-8-6-10-11l-3-8c-2-3-6-3-9-3-12-1-20-8-29-15-5-4-9-8-15-10l-1-1-3-2-5-3c0-3 5-3 6-3h6c16 0 31 7 46 14zm94 96c-7 9-14 18-23 24l-1-2v-1c-3-11-8-22-19-27l-9-6-9-6h-7c-5-1-2-11-5-15-3-3-7-5-12-7l-14-9c-3-3-10-6-10-12 0-3 1-5-2-7l-17-11-12-11c-3-3-7-6-12-6h-4l-3-1v-2c0-1 0-2 2-2h2c9 4 18 9 28 18 5 4 11 9 18 10 6 2 12 0 14 7 1 4 2 7 5 9l8 7 4 7 7 3 7 5c4 4 9 6 13 9 3 1 5 3 6 5l3 6c3 5 9 8 14 10l10 7c5 5 11 4 17-2h1zm-166-92l6 2 3 1c10 2 18 8 26 15l7 6 7 4c2 2 1 4 1 6 1 4 5 8 8 10 4 2 8 3 11 7l4 3 2 1 2 1c4 2 8 4 10 8 3 4 0 8 3 12l8 4 9 3 7 5 7 4 10 11c1 2 2 4 1 5-2 2-4 1-6 1l-9-3-19-7c-29-11-56-25-79-45a94 94 0 01-26-36c-2-6-2-12 2-15 1-2 3-3 5-3zm101 124c-29-1-53-10-72-26s-40-35-45-65c-1-9-2-18-1-27l4-6 1-1 5-3v1h-1l-3 2c-6 9-3 18 0 26 12 28 36 45 56 57a274 274 0 0054 24l22 8c3 0 8 1 9 4 2 3-2 4-4 4-9 2-17 3-25 2zm-82-148c-8 1-14 4-17 11-1 3-2 3-4 3h-1c-6-1-14 2-19 8-3 3-4 7-4 10 3 24 6 48 24 69 17 21 40 43 75 49h2a2822 2822 0 0129 5c26 1 46-8 62-27l1-2c4-5 9-11 7-19-5-19-15-33-31-45l-20-16c-15-12-31-25-50-33l-7-2c-12-5-25-11-39-11h-8M942 5l4 11c3 7 8 14 16 17a543 543 0 0098 27h1c25-3 69-15 87-60h-8c-6 13-15 26-29 34-19 11-34 17-50 18l-7-1c-21-2-42-4-61-13l-17-7-10-4a28 28 0 01-16-27h-8v5M1010 0h1-3 2M683 337c1 25 2 53-17 75-14 17-26 27-40 34l-7 1c-21 5-41 10-62 8a171 171 0 00-29-1c-10 0-21-8-24-18-2-5-1-7 3-9 7-4 14-5 22-7l10-2 6-3c4-2 8-4 13-1h2s3-1 3-3c0-11 8-13 16-16l4-1 4-1c5-1 10-3 14-9l3-1c4 1 7 1 9-1 2-1 3-3 2-7h1l1 1 2 1c2 2 5 3 8 2 3-2 3-6 2-8v-3c-1-5 2-8 7-10 12-4 26-10 37-23 2-3 5-4 7-3 2 0 2 2 3 3v2zm-188 81c-1-5 9-4 13-4a140 140 0 0029-8c5-2 9-3 11-7 2-3 2-6 0-11l2 2c1 1 2 4 5 2s2-5 2-6l-1-1a7 7 0 010-2c4 5 9 3 14 2l21-9 7-4c4-1 4-4 4-7v-1-3-3l3 2 4 1 3-4v-3l2-4 4 2h4c2 0 4-2 5-4 1-3 3-4 6-4 13 1 24-4 32-13l6-11 2 4-4 4c-9 11-21 18-37 23-7 2-11 8-10 16v4l-1-1-3-1-2-1-5-2c-2 1-2 3-2 4l-1 6h-6c-3 0-5 2-7 5s-5 4-10 6h-1l-5 1c-10 2-20 5-22 19-6-3-11-1-15 1l-6 3c-8 1-19 2-27 7-3 2-11 9-14 2v-2zm-14-20c-8-22 6-60 27-75 30-20 64-30 97-41l3-1 8-2c6-2 13-5 21-5 14 0 21 6 27 20a39 39 0 012 8c1 8-1 15-5 21-7 9-18 14-30 14l-6 1c-2 4-3 6-5 6-3 1-5 0-9-2h-2c-2 0-2 2-2 4v2l-1 2-1 2-2-2v-1c-1-1-3-2-5-1l-2 5c2 9-1 14-11 17l-13 5v1c-8 4-13 3-17-3-1-1-4-4-6-3-3 1-2 4-2 6v1l1 1h-1l-3-2h-2l-1 1v2l-1 3c0 8 1 12-1 14-2 3-6 4-14 6l-4 2c-10 3-20 6-31 3-4-1-7-4-9-8v-1zm207-68l-3-5c-2-4-6-5-9-9-3-3-3-8-4-13-1-9-6-20-13-27-9-10-22-11-35-7l-21 7c-16 4-31 9-44 15l-10 4c-15 5-28 10-39 19a82 82 0 00-36 77c0 5 3 11 5 17 1 4 4 7 7 10l7 11c3 4 3 9 5 13l7 8c6 6 13 11 21 11l15 1h21c23 1 45-4 66-9 24-12 63-40 62-93v-8c1-7 1-15-2-22M986 260c-5-2-5-5-3-10l14-22 10-14 8-9c4-4 8-8 8-12 0-9 6-13 11-17l6-4v-1c5-4 9-8 9-16-1-3 0-5 3-6h9l5-2a13 13 0 016-2l1-2c1-1 0-2-1-4l-4-3-3-4 3-4 2-3 8-5 2-1h1l3-1 11-5c5-1 9-1 13 3 9 6 12 17 9 30-4 21-12 42-25 67a96 96 0 01-62 49l-17 4c-9 2-19 0-27-6zm-9-18l2-3c4-5 10-9 11-16l3-7 4-6c1-3-1-3-1-5 0-5 5-6 7-8l8-10 13-17a173 173 0 0012-12c2-3 5-6 5-10s-3-7-1-11c1-3 3-1 5-2 4-2 2-6 5-8l6-2 5-5c2-1 4-6 7-6 4 1-5 9-6 10l-4 5c-2 3 1 7 0 10-2 4-8 4-11 6-4 3-4 8-5 12-1 5-4 9-8 12l-1 1c-9 6-17 13-19 24l-4 4c-4 1-6 3-6 6 0 5-2 8-6 12-7 7-11 15-16 22-1 1-1 5-3 5l-2-1zm-19 2l-4-5c-3-15-3-29-2-42v-11c1-12 1-25 5-38 5-14 14-26 28-37 13-9 27-20 44-25l4-1c9-2 18-2 26-1h13c3 0 6 1 6 5 0 6 0 9-4 11-8 3-13 7-16 13-1 3-4 7-8 8l-6 1h-1c-3 1-9 11-11 15v4c3 4 2 8-2 13-10 10-19 19-25 30l-7 7c-4 4-9 9-10 18-1 10-9 20-16 29l-5 6c-2 2-6 2-9 0zm-15-24l-1-3c-8-36-2-70 17-101 5-7 12-11 19-14l3-1a377 377 0 0022-10l2-1-8 5c-8 5-17 11-24 18a81 81 0 00-28 60v16a363 363 0 00-2 31zm145-120l5-1c2 1 7 3 4 6l-5 2-7 3c-3 1-9 4-6-2 2-4 5-7 9-8zm0 133c15-22 27-48 36-80 4-13 1-28-6-40a41 41 0 00-29-21h-2l-2-8c-3-5-8-7-14-7h-12c-15-2-30-1-47 4-11 3-22 8-37 15-7 3-16 8-22 18-19 32-25 68-18 105l1 1 1 4 3 9a48 48 0 008 10c2 3 5 7 9 8 4 2 5 0 8-1 7-3 9 6 12 11 2 3 6 6 13 9 12 4 26 4 42-1 22-6 46-21 56-36M708 645c-4 3-7 3-11 0l-17-20-11-13-6-10c-3-6-5-10-9-11-9-3-11-10-14-16l-2-6-1-1c-2-6-5-11-13-13-3 0-5-2-5-4l2-5 1-5-1-4a13 13 0 010-7l-1-2-5 1-4 2c-2 1-3 3-4 2l-4-3-2-4c-1-3-3-5-3-8l1-3v-1-3l-3-12c0-5 2-9 7-12 9-7 19-7 32 0 19 10 37 24 56 42 21 20 31 44 31 74l-1 17c-1 9-5 18-13 25zm-20 3l-2-3c-4-5-6-12-13-14l-6-6-4-5-6-1c-4-1-4-5-5-9l-8-10-12-17-8-12-1-2c-2-4-4-7-8-8-3-2-8 0-11-2-2-2 0-4 0-6-1-4-5-4-6-7l-1-6-3-7c-1-1-5-5-4-7 3-5 7 6 9 8l3 5c2 3 6 1 9 3 4 3 2 9 3 13 2 4 6 5 10 7 5 3 8 6 10 11v2c4 10 8 19 18 25 2 0 2 2 2 5 1 3 2 6 5 7 5 1 7 4 10 9 5 8 11 15 17 21 1 1 4 3 3 5l-1 1zm-3 19c-2 2-4 2-6 2-15-1-29-5-41-9l-10-3c-12-4-25-8-36-16-12-8-21-20-28-37-5-15-12-31-11-49v-4c0-9 2-17 5-26l4-12c1-3 3-5 7-4 5 1 8 2 9 7 1 8 3 14 9 19 2 2 5 5 5 10l-1 5v2c0 2 8 12 12 14l3 1c5-1 9 1 12 6 7 12 13 23 22 32l5 8c3 6 6 12 14 15 10 4 17 14 24 24l4 6c2 2 1 6-2 9zm-27 8h-3c-37-2-68-17-93-44-5-7-7-15-8-23l-1-2a493 493 0 00-3-24v-2l2 8 10 29c11 21 28 36 51 43l15 4 37 11h-7zm-76-173l1-4c1-3 4-6 7-3v5l1 8c1 3 1 9-4 5-3-3-5-7-5-11zm128 37c-17-21-38-39-67-57-12-7-27-9-40-5a41 41 0 00-28 22l-1 2h-8c-5 1-9 5-11 11l-1 5-2 6c-6 14-9 29-9 47 0 11 1 24 4 40 1 7 4 17 11 25 26 28 58 44 97 47h4l10-1 10-3 2-1c4-2 8-4 10-7 3-3 2-5 1-8 0-8 9-7 14-9 4-1 8-4 12-10 7-10 11-24 11-40 0-24-8-50-19-64M1338 1498c-4 4-7 4-11 0l-18-20-10-12-6-10c-3-6-6-10-9-12-9-2-12-9-14-16l-2-6-1-1c-3-5-5-10-13-12-3 0-5-2-5-5l1-4 2-5-1-5a13 13 0 010-6l-1-2h-6l-3 3-5 2-3-4-2-3-3-9v-2-1-4l-2-11c0-5 2-9 6-12 9-7 20-7 32-1 19 11 37 24 57 43 21 20 31 44 31 73l-1 17c-1 10-6 19-13 25zm-20 4l-2-3c-4-5-7-12-13-14l-6-6-5-5c-2-2-3-1-5-1-4-1-4-6-6-9l-7-10c-5-5-8-11-12-17l-8-13-1-2-8-8c-4-1-8 1-11-2-2-2 0-3-1-5 0-4-4-4-6-7v-6l-3-7c-1-1-5-6-4-8 2-4 7 7 8 8l4 5c2 4 6 2 9 4 3 3 2 9 3 12 2 5 6 6 10 8s8 6 9 10l1 3c4 9 7 19 18 24 2 1 2 3 2 5 0 4 2 6 5 7 5 2 7 5 10 10 4 8 11 14 17 21l3 4-1 2zm-3 19l-7 2a161 161 0 01-51-13c-12-4-24-8-35-15-13-9-22-21-28-37-5-15-12-32-12-49v-5c0-8 3-17 6-25l4-12c1-3 3-5 6-5h1c5 2 8 3 9 7 0 9 3 15 8 19 3 3 6 6 6 11l-1 5-1 1c0 3 9 12 12 15l4 1c5-2 8 0 12 6 6 12 13 23 21 32 3 2 4 5 6 8 2 6 5 12 14 15 10 4 17 14 24 24l4 6c1 2 1 6-2 9zm-28 8h-3c-37-3-68-18-92-45-6-6-7-14-9-22v-3a561 561 0 00-3-23v-2l2 8c3 9 5 19 10 28 11 22 28 37 50 43a780 780 0 0145 16zm-76-173l1-5c2-2 5-6 7-2l1 5 1 7c0 4 1 10-4 5-3-2-6-6-6-10zm128 36c-16-20-38-38-67-56-11-7-26-9-40-5a41 41 0 00-27 22l-2 2h-8c-5 1-8 5-10 11l-2 5-1 6c-6 14-9 29-9 46 0 12 1 24 4 40 1 8 4 18 11 26 26 28 58 43 96 47h1l4-1h10l10-4h2c4-2 8-4 10-7s1-5 1-9c-1-7 8-6 13-8 4-1 8-4 13-10 7-10 11-24 11-40 0-24-8-50-20-65M1562 884c-3 2-7 4-12 4-9-1-15-6-21-11l-3-2-8-8c-4-4-8-10-15-11-3-1-6 0-10-2l-7-5-12-9c-5-3-10-6-15-11-3-4-5-9-9-12-3-2-6-2-10-3l-6-4c-5-7-11-12-17-17-4-3-9-6-11-10-2-2-2-4-1-6 3-5 13-5 18-5l10-1a1156 1156 0 0027 3c20 3 41 7 56 23a245 245 0 0146 72c3 6 3 11 0 15zm-20 33c-6 4-12 4-20 5h-5l-5-1c-22-3-45-7-67-19a120 120 0 01-64-93c0-5 3-14 9-13 4 1 8 5 11 7a315 315 0 0111 10c9 7 17 14 20 26l1 1c0 3 1 9 5 9 2 1 5-1 8-4h1l17 10 27 17 3 1c4 3 7 4 6 9l2 3h2c4-1 7 1 10 4l7 4c10 2 17 6 22 10l4 7c0 3-3 5-5 7zm-34 14h-1c-13 7-28 6-40 3l-3-1c-22-5-44-9-59-26-19-21-28-44-28-70l1-8v-2l1 5c11 35 32 61 64 77 17 9 35 13 53 16l11 3 4 1-3 2zm-107-138c0-2 3-3 5-2 5 3 9 8 13 13 7 7 14 14 23 18 4 2 6 5 9 8 4 4 7 7 12 9s8 6 12 10c3 4 7 8 12 10l9 2c8-2 13 5 18 10l9 10 11 8 9 4 4 1c0 3-8-1-9-1a229 229 0 01-25-13c-2-1-5-2-6-4l-4-5c-4-4-10-6-15-9l-24-15-12-8c-3-1-6-6-9-3l-1 3c-3 0-4-1-5-4-1-5-2-9-5-12-6-8-13-14-21-20-2-2-9-5-10-8v-2zm164 66l-11-20-7-13c-8-15-17-31-32-40a148 148 0 00-110-17h-1a21 21 0 00-9 11l-1 6h-1c-4 0-7 1-10 4-8 6-12 16-13 29v13c0 21 4 39 13 53l5 10c4 8 8 17 16 22 19 11 39 19 61 23l5 1c9 2 18 4 28 1l40-17 7-2c6-3 9-8 9-13a15 15 0 00-2-8l3-3c10-6 16-14 16-23 0-6-2-11-6-17M39 582c9 2 19 3 28 1l41-17 6-3c6-2 9-7 9-12a14 14 0 00-2-8l3-3c11-6 16-14 16-23 0-6-2-12-5-18l-11-19-7-13-1-1c-8-14-17-30-32-39-25-16-53-23-84-21v6h3a1130 1130 0 0026 3c20 3 41 7 56 23a245 245 0 0147 72c3 6 2 11-1 14s-7 4-12 4c-9 0-15-5-21-10l-3-2-7-8c-5-5-9-10-15-12l-10-1-7-5-13-9-15-11c-3-4-5-9-9-12-3-3-6-2-10-3-3-1-4-2-6-5l-3-4v10l11 7c4 2 6 5 9 8 4 3 7 7 12 9s8 6 12 10 7 8 12 10l9 2c8-2 13 5 18 10l9 10 11 8 9 4 4 1c0 3-8-1-9-2a228 228 0 01-25-12c-2-1-5-2-6-4l-4-5c-4-4-10-6-14-9l-25-15-12-8c-2-1-6-6-9-3l-1 3c-3 0-4-1-5-5s-2-8-5-11l-1-2v13l2 5v1c1 3 2 8 5 9s5-1 8-4h2l16 10 27 17 3 1c4 3 7 4 6 9l2 3h2c4-1 7 1 10 4l7 4c10 2 17 6 22 10l4 7c0 3-3 5-5 7-6 3-12 4-20 5h-5l-5-1c-22-4-45-7-67-19l-14-8v8l13 7c17 9 35 13 52 16a940 940 0 0115 4l-3 1-1 1c-13 7-28 5-40 3l-3-1c-11-2-23-5-33-9v6c11 5 22 8 34 10l5 1M839 896c3 2 6 5 7 11 3 8-1 15-4 22l-1 4-6 9c-3 5-7 11-7 18l1 10c0 3-2 5-3 8l-5 14-7 17c-3 4-8 8-10 12v11l-2 6c-5 7-9 14-12 22-2 4-3 9-6 13-2 2-3 3-6 2-6-1-8-11-10-16l-4-10a1216 1216 0 00-4-26c-2-20-3-41 8-60 13-23 32-41 51-58l7-6c4-4 9-6 13-3zm38 11c5 4 7 10 10 17l1 5 1 5c2 23 4 46-1 69a120 120 0 01-73 87c-4 1-15 1-15-6 0-4 3-8 4-12l4-8 2-5c5-11 10-21 20-27h1c3-2 8-4 8-8 0-2-2-4-7-6v-2l6-18 9-30 1-4c0-5 1-8 6-8l2-3v-2c-2-3 0-7 1-10l2-8c0-10 1-18 4-24 2-3 4-5 6-5 3-1 6 1 8 3zm22 28v1c11 11 13 26 14 38v3c1 22 2 45-10 64-15 23-35 38-60 45l-8 2-2 1 5-4c31-19 50-46 57-82 4-18 3-37 2-55a942 942 0 01-1-15l3 2zm-104 140c-3 0-5-2-4-4 2-6 6-12 9-17 5-8 10-16 12-27 0-3 2-7 5-10 2-5 5-9 6-14 0-5 3-9 6-14s6-9 7-15l-1-8c-4-8 1-14 5-21l7-11 5-13 1-10 1-3c2-2 0 7 0 8a228 228 0 01-5 28l-2 7-4 5c-3 5-4 11-5 16l-8 28-4 14c-1 2-5 7-1 9h3c1 3 0 4-3 6l-10 8c-6 8-10 17-13 25-2 3-3 11-6 12l-1 1zm19-176l-16 16-10 10h-1c-12 12-24 25-29 42a148 148 0 0012 110v1a21 21 0 0013 6l7-1v1c1 4 3 7 6 9 8 6 18 7 31 5l13-3c21-6 36-15 48-27l8-8c7-6 14-12 17-21a165 165 0 006-70c-1-9-1-18-7-27l-26-35-5-5c-4-5-9-7-14-6a14 14 0 00-7 5l-3-2h-1c-8-9-17-13-26-10-6 1-11 5-16 10M1568 1387c-2 8-5 16-5 25l2 12c8 20 17 38 35 48v-19l-6 1c-4-1-8-3-9-7l-6-11c-5-7-9-15-9-24a127 127 0 0130-72v-10a170 170 0 00-32 57M1568 726c-2 8-5 17-5 25l2 12c8 20 17 39 35 49v-19h-6c-4-1-8-3-9-6l-6-11c-5-8-9-15-9-24a127 127 0 0130-73v-10a170 170 0 00-32 57M1574 410h-1a21 21 0 00-9 11l-1 6h-1c-4 0-7 1-10 4-7 6-11 16-12 29l-1 13c0 21 5 39 13 53l6 10c3 8 8 17 15 22 9 5 18 10 27 13v-6c-10-4-19-9-26-17-18-21-27-44-27-70v-11l2 6c9 30 26 54 51 70v-8a121 121 0 01-50-85c0-5 3-15 10-13 4 1 7 5 10 7l7 6 4 4c8 6 15 12 19 21v-13c-6-7-13-12-20-18-2-2-9-5-10-9v-1c0-2 3-3 5-2 5 3 10 8 14 13l11 11v-10l-14-12-11-10c-1-2-2-4-1-6 3-5 13-5 18-5l8-1v-6a177 177 0 00-26 4M726 51l-3 3c-6 8-9 21-9 34 0 14 3 27 10 35 4 6 12 7 19 6l9-4 10-6 8-7c3-2 5-4 8-4 4-1 8-1 10-4 3-3 1-5 7-6l7 1 9-3 15-8c4-3 9-4 12-8 3-3 4-6 9-6 12-1 21-9 33-11 4-1 7 1 1 3l-10 3-10 5c-4 2-8 3-11 6l-3 1c-3 2-7 4-8 10 0 3-4 2-6 2-3 0-5 0-6 3-2 4-2 4-7 4h-5c-4 2-3 4-8 1-5-2-7 0-10 3-1 2-3 4-5 4l-20 11c-8 5-16 10-25 11-8 2-12 5-12 11l3 9c8 12 20 18 32 24h0c-15-4-29-7-41-17-14-12-21-25-21-41v-4c0-22 4-41 14-57 2-4 5-7 8-9l-4 5zm167 18c13-9 15 11 14 19-1 14-8 26-17 36-12 15-23 26-34 35-12 9-26 15-36 15-30 1-52-6-71-21-4-3-6-6-7-10v-2c0-2 0-3 3-3 11-1 20-7 28-12l11-6 9-5 13-7h2c4-2 10-4 14 0l6 1 2-3 2-5h7l4 1 5-1 1-2-1-3c-2-5-1-8 5-11l4-2c6-2 12-5 19-6 6-1 11-4 17-8zm-27 111c11 11 11 26 12 41a308 308 0 000 15v13l-1 1c-1 6-3 11-7 16-4 3-10 4-11-2 0-3 1-7-3-8l-5-4c-3-2-6-6-11-4l-2-4-2-5-3-6c-4-10-9-19-15-27l-10-12c-1-3-4-7-3-9l1-1c1-2 7-2 9-2l30-8c10-4 15-1 21 6zm-14 89c-3 4-7 3-9 0l-8-12-10-16-6-11-4-3c-1-1-3-2-3-4l-2-6c-1-4-5-10-4-15 3-1 11 12 13 15 4 6 7 13 9 20 3 10 10 16 17 21 3 3 9 6 7 11zm-17 12l-4 1c-5 1-10-2-15-4a161 161 0 01-49-30c-12-10-20-23-27-35l-8-14c-4-6-8-12-10-19-1-3-5-14-2-17 4-4 15 6 18 8 8 4 17 7 25 9l18 4c6 3 10 8 14 13 4 6 8 12 7 20v3c0 3 1 7 3 10l9 5c3 3 5 6 6 10l5 9c5 4 17 22 10 27zm-113-86l14 23 6 10c15 24 37 42 68 55-46-10-79-43-88-88zm7-166l1 2 2 6c-9 6-17 14-22 25-3 7-5 15-6 23l-1 5c-2 8-2 15-2 22 0 16 4 29 14 40l1 2-1 2c-3 3-4 7-4 10l1 4c1 16 4 33 11 49 19 48 62 76 113 74 7 0 8-3 8-6v-1-2l4-2h2c12-3 25-7 31-21 2-7 4-15 4-24a218 218 0 00-2-28c-1-17-8-31-22-42l-2-1 1-1a145 145 0 0034-34c17-19 23-38 19-59-1-6-4-15-15-17l-1-1v-2c5-8 5-17 0-27-6-13-16-20-26-25h-21c16 2 30 11 39 24 4 5 5 10 5 14 0 9-6 15-16 18l-25 9c-3 2-4 2-6 1-3-2-6-2-9-1-2 2-3 4-3 7 0 7-4 8-10 10l-6 2-4 2-9 4c-2 2-3 3-5 2-2 0-4-1-6-5-1-2-3-4-6-3-3 0-3 2-3 3v2l-5-1-1 3 1 3v2c-1 3-6 8-9 8-8 0-12 4-17 9l-6 5c-7 4-12 6-15 5-4-2-7-5-10-12-3-8-2-15-3-23-1-9 0-17 4-25 5-10 13-18 21-25 25-22 51-35 78-38h-31c-2 2-4 4-8 5l-5 3-4 2-9 3-1-13h-5v7c0 7-3 13-9 17-3 2-14 9-16 4-4-9-7-18-8-28h-6l7 28v1M1353 1576c-1-1-1-4-4-4-4 0-6 3-6 5v1l-1-1a199 199 0 000-10c0-10-4-17-12-20-7-3-14-3-21-3h-12c-29-2-52 7-68 27-8 9-16 19-22 29h8l9-13c17-23 37-36 62-37a182 182 0 0127 0c-22 2-38 15-53 30a1020 1020 0 01-20 20h9l28-26c17-13 31-20 50-15 4 1 9 3 9 9l-1 5a54 54 0 00-1 9l-1 2c-1 7-2 12-9 14l-2 2h12l2-2v-1l1-3 1 1-1 5h7a507 507 0 015-15l2 12 1 3h6a113 113 0 00-5-24M417 1565l-4-2-5-3c-3-4-3-9-3-14l1-10c-1-8-7-17-14-21-12-7-28-9-41-5l-17 3-17 4-17 7-12 8c-8 6-15 12-21 20l-17 20-3 3-18 25h7c4-7 9-14 15-20a117 117 0 00-9 20h7a146 146 0 0165-72c5-3 11-5 16-6 11-4 22-5 32-7 10-1 19 1 25 6 4 4 7 9 8 15 3 14-5 34-21 38l-5 1c-6 0-13 0-15 9 0 2-5 8-6 8h-6c-2 2-2 4-2 6v2h13l4-8c0-2 3-10 7-9 8 1 14-1 19-5l1 1c-5 4-10 9-13 15-2 3-4 5-7 6h11l7-8 13-14 4-4c3-4 5-6 8-6 8 2 15 12 15 20v3l-2 9h7l2-11c0-9-5-18-12-24M137 1548c-17-16-38-22-59-28l-15-4h-8l-7 5-7 8v1c-11-3-20 4-24 17l-1 4v16c1 4 2 7 1 11l1 22h8c-2-7-2-14-2-22v-10l-1-6v-1l1 1c3 14 9 26 15 38h7c-5-10-9-22-13-35l-4-10v-9l4-7c4-4 7-4 12 0 14 13 26 28 40 46l2 2c3 3 5 7 6 12v1h21a95 95 0 00-5-6l-5-2c-2 0-3 2-4 4v1l-2-3c0-9-6-15-12-21l-2-3h-1v-1l-4-4 4 3c6 4 12 9 17 16 2 3 4 5 7 6l7 5 3 5h10c-4-4-7-9-8-15 0-2-2-3-4-4-11 0-16-8-22-15l-7-9-9-9a605 605 0 01-22-25l4-2h2l23 9c22 7 44 15 60 34l3 3 1 2c9 10 16 21 22 31h7c-10-19-24-37-40-52M1470 1504c-6-1-11 1-15 4l-7 3c-12 4-23 12-31 24a117 117 0 00-21 65h7c2-18 4-35 14-51 7-13 15-22 28-31 2-2 5-2 7-1l1 1v3l-2 2c-16 6-24 19-24 38 0 14 1 27 3 39h7l-3-41v-1c0-6 3-11 6-17l4-7c1-2 4-4 6-3 4 0 6 2 7 5a228 228 0 0025 64h7l-17-36-2-4c10 11 17 23 23 40h8l-2-6c-3-6-5-13-10-18-3-2-4-5-4-7 0-3 2-6 3-8l1-1 1-2-1-3h-5c-3 2-5 2-7 1-2 0-3-2-5-7l-3-9-7-18c-1-4-1-8 1-11s4-2 8-1h1c26 6 39 25 51 46 8 14 13 29 16 44h6c-4-20-12-41-25-59-11-17-26-33-50-37M598 1561c-1-8-6-14-12-16-3-2-4-2-4-4v-1c1-7-3-14-8-19-3-3-7-4-11-3-23 3-47 7-68 26-15 15-31 32-40 56h7c4-9 9-17 14-24 15-20 34-41 63-47 9-2 18-3 27-2 3 0 4 1 6 3l1 1 3 5-1-1-2-2c-9-6-18-3-26 1-27 13-43 38-54 58l-4 8h7c7-12 14-24 23-35 10-12 22-22 35-28 7-3 12-2 16 1 2 1 2 3 2 5l-1 6-1 4c-2 10-7 17-13 26l-6 7-4 7c-2 2-4 1-6 2l-8 5h18v-1l11-17 9-13c3-3 7-7 7-12l-1-3 1-4h2c1 0 2 0 2 2v2c-3 9-8 18-16 28-4 6-8 11-10 18h6c2-7 7-13 11-19l10-15 1-1 2-4c1-1 1-4 3-5 2 0 3 5 3 7v5c0 11-3 22-6 32h6c3-10 6-20 6-31v-8M1147 1531c-1 7-5 14-11 18-9 6-22 7-34 2h-5c-3 3-5 4-7 4-3 0-5-2-8-5 0-1-1-2-2-1l-3 3-1 2-1 1-2 3v-1l-1-2v-1c0-1-1-4-4-3-2 0-3 3-3 4-1 9-6 13-16 12l-14 1h-1c-9 1-13-1-15-8-1-2-3-5-5-5-3 0-3 3-3 5v1l-1 1v-1l-3-2-1-1-1 1-1 1-2 3c-2 8-4 12-6 13-2 2-7 2-15 1h-4c-11 0-21-1-30-7-4-3-6-6-6-10v-1c0-24 26-55 51-61 34-10 70-8 105-6h11c7 0 14 0 21 3 14 5 19 12 19 27v1l-1 8zm-1 23l-4 2c-12 7-26 10-43 10-7-1-13 3-15 11v1l-1 3-1-1-2-3-2-1c-1-2-2-4-4-3-2 0-3 2-3 3l-3 4c-1 1-3 0-6-1-2-1-5 0-8 2s-6 2-11 2h-1l-6-1c-9-1-20-2-27 10-4-5-9-4-14-3h-6c-9-1-19-4-28-2-4 1-14 4-14-3v-2c2-5 10-1 14 0 8 2 16 2 23 2l7 1c5 0 10 0 13-3 2-2 3-5 3-10h1v2c1 1 2 5 5 4s3-4 3-5v-2a7 7 0 011-2c2 6 7 7 12 7l23-1 8-1c4 0 5-3 6-5l1-2 1-3 1-2 2 3 3 2 4-3 1-2 3-4 4 3 4 2 6-3c1-2 3-2 6-1 12 5 24 5 35-2 2-2 7-7 9-7s1 4 0 4zm7 32c3-7 6-14 6-21l-1-6c-1-5-5-7-6-12-1-4 0-9 1-13 2-9 1-21-3-30-5-13-18-18-31-18l-22-1c-17-2-32-3-46-1h-11c-16 1-30 1-43 5-32 9-52 29-61 60v18c0 5 1 8 3 12 1 4 3 8 3 13v8h8c0-4 2-5 6-6 8-1 15 0 22 1l11 2 6-1c5 0 9-1 13 4h3l3-2c3-10 11-10 20-9a114 114 0 008 1c6 0 11 1 16-4h4c3 2 6 4 9 3 2-1 3-3 4-7l1 1v1l2 1c1 2 3 5 7 4 4 0 4-4 5-6v-2c2-6 5-8 10-8 13 0 28-1 43-9 3-2 6-2 8-1l1 4v2c-3 10-7 21-12 31h8l2-6 3-8M840 1582l-1 5c-3 6-15 6-19 7-2 0-7 2-9 1s-2-4-1-6c4-4 8-7 7-14-2-5-2-8 0-14l2-17c1-6-2-10-2-15-1-5 4-8 6-12 2-6 1-12 1-18l2-8c1-2 2-5 4-5 1-1 2 0 4 2l1 2c3 3 3 8 4 12v3l2 15 2 36c0 9-1 17-3 26zm-37 8c0 1-1 11-4 7-1-2 1-7 2-9 1-6 2-12 6-17a17 17 0 001-19l-2-6 1-3c0-6-2-11 0-17 2-5 3-12 7-17 3-3 4 0 3 4l-3 17-2 5v27l-1 8-3 12c-2 3-4 4-5 8zm44-1v-10l2-16c0-19-1-38-4-57v-2c-1-7-1-14-7-21-3-3-5-5-8-5s-6 2-8 5l-2 3-2-4c-3-9-10-16-18-18-9-3-17-1-24 5l-9 7-9 7a97 97 0 00-32 38c-5 15-8 29-8 45 0 11 1 22 4 34h6a253 253 0 01-3-34c0-31 10-54 30-70l20-17c2-1 7-3 10-2 4 2 0 12-2 15l-2 6c-13 31-19 64-20 102h5c3-34 8-70 22-104l1-1c2-4 4-8 4-13l-2-6v-2c0-3 4-3 5-3 4 0 8 1 11 4 4 4 7 10 7 16l-1 5-2 6c-1 6-2 12-7 17-4 4-5 4-9 4h-1c-3 1-4 2-4 4l2 3c7 9 11 18 11 26 0 7-2 13-6 19-3 4-4 9-4 14v11h31a120 120 0 0126 0h21l-14-5c-3-1-8-2-10-6"/>
</svg>
